<svg width="89" height="91" viewBox="0 0 89 91" fill="none" xmlns="http://www.w3.org/2000/svg">
<path fill-rule="evenodd" clip-rule="evenodd" d="M73.9313 0.0029885C75.0267 -0.0323473 76.8642 0.250339 77.9596 0.603697C79.0903 0.957055 80.7158 1.66377 81.5992 2.15847C82.4826 2.65317 83.9313 3.88993 84.8501 4.87933C85.8041 5.86873 87.0409 7.74153 87.6769 9.04895C88.5603 10.9571 88.843 12.0525 88.949 14.2786C89.0904 16.4695 88.949 17.6709 88.3836 19.579C87.9243 21.0985 87.0762 22.8652 86.1222 24.1727C85.2034 25.4094 83.684 26.8935 82.4826 27.7062C81.3165 28.519 79.3024 29.473 75.5921 30.5331V49.4378L74.7087 49.9678C73.9313 50.4272 73.7193 50.4272 72.0585 49.4378V30.5331L69.8677 29.8971C68.6309 29.5437 67.0055 28.8723 66.2281 28.413C65.4507 27.9183 64.0373 26.7875 63.1186 25.8688C62.0938 24.8794 60.8571 23.0773 60.115 21.5578C58.9136 19.0843 58.8076 18.6956 58.8076 15.7274C58.8076 13.9606 58.8783 12.0172 59.1609 10.3917L16.9347 10.215V51.5579H27.4294C36.8287 51.5579 38.1008 51.6286 39.3729 52.2293C40.1503 52.5826 41.281 53.3954 41.8817 54.0667C42.4471 54.7381 43.2245 56.0456 44.1432 58.8017L46.8641 59.0138C48.3835 59.1198 50.1503 59.4731 50.751 59.7911C51.3871 60.1092 52.2351 60.9219 52.6238 61.5226C53.0479 62.2293 53.3305 63.3247 53.3305 64.1728C53.3305 65.0208 53.0832 66.1516 52.8005 66.7523C52.5178 67.353 51.7404 68.1304 51.1044 68.5191C50.5037 68.9078 49.691 69.2258 49.3376 69.2258C49.0196 69.2258 48.6662 69.3671 48.5602 69.5792C48.4542 69.7912 48.6309 70.8512 48.9136 71.9467C49.1963 73.0774 49.4436 75.3742 49.4436 80.1799H72.0585V72.0527C72.0585 67.353 72.1999 63.6427 72.4119 63.2187C72.6239 62.7594 73.1186 62.512 73.7193 62.512C74.2847 62.512 74.9207 62.6887 75.1681 62.936C75.4861 63.2894 75.5921 65.7276 75.5921 73.0067C75.5921 82.6181 75.5921 82.6534 74.7794 83.1834C74.1433 83.6428 72.0938 83.7135 49.4436 83.7135L49.3376 86.0456C49.2669 88.1658 49.1609 88.4485 48.1008 89.4025C47.0408 90.3919 46.8288 90.4273 43.6839 90.4273C41.387 90.4273 40.221 90.2859 39.6203 89.8972C39.1962 89.6146 38.5955 88.8725 38.3128 88.3071C38.0301 87.7418 37.7828 86.4343 37.7828 83.7135H15.5212V85.8336C15.5212 87.7771 15.4152 88.0598 14.3198 89.1905C13.1184 90.4273 13.1184 90.4273 10.0089 90.4273C8.20674 90.4273 6.47528 90.2153 5.98058 89.9679C5.48588 89.7206 4.8145 88.9785 4.46114 88.3071C3.89577 87.2117 3.8251 86.293 3.96644 79.8265C4.07245 74.1728 4.21379 72.2647 5.27387 69.5792L3.75443 69.1905C2.87103 68.9431 1.88163 68.3424 1.28092 67.671C0.750886 67.0703 0.185513 66.1163 0.0795055 65.5155C-0.0265018 64.9148 -0.0265018 63.8901 0.0795055 63.2187C0.185513 62.5473 0.750886 61.4873 1.28092 60.8866C1.81096 60.2858 2.90637 59.6145 3.68376 59.3671C4.46114 59.1551 6.01592 58.9784 9.1608 58.9784L9.76151 57.141C10.1502 56.0456 10.9983 54.6675 13.4011 52.0879V30.0031C13.4011 13.1126 13.5071 7.8122 13.8251 7.45884C14.1432 7.14082 19.3728 7.03481 60.7511 7.03481L62.6592 4.98533C63.7193 3.88993 65.3447 2.54717 66.2988 2.01713C67.2175 1.48709 68.8783 0.815712 69.9384 0.533025C70.9984 0.250339 72.8006 0.0029885 73.896 0.0029885H73.9313ZM23.7192 21.5225H36.5107C46.3694 21.5225 49.4083 21.6285 49.7616 21.9465C50.009 22.1939 50.1857 22.7239 50.1857 23.1126C50.1857 23.5013 50.009 24.0313 49.7616 24.2433C49.4436 24.5967 46.2987 24.7027 23.6838 24.7027L23.2951 23.89C23.0124 23.3246 23.0124 22.9006 23.2951 22.2999L23.7192 21.5225ZM63.2952 30.3564L63.8253 31.1692C64.2493 31.8052 64.3553 33.254 64.3553 38.307C64.3553 43.3953 64.2493 44.8441 63.2952 46.2575L44.6379 46.2929C30.0796 46.2929 25.91 46.1869 25.5566 45.8335C25.2386 45.5155 25.0972 43.466 25.0266 38.307C24.9912 32.6179 25.0619 31.1338 25.4859 30.7805C25.8393 30.4624 30.6096 30.3564 63.2952 30.3564ZM57.2882 50.8512C64.0373 50.8512 65.4861 50.9572 65.9454 51.3812C66.2281 51.6993 66.4755 52.3353 66.4755 52.7947C66.4755 53.3247 66.1928 53.8547 65.7687 54.0314C65.3447 54.2434 61.7405 54.3848 57.2882 54.3848C52.8005 54.3848 49.1963 54.2434 48.8076 54.0314C48.3835 53.8547 48.0655 53.3247 48.0655 52.83C48.0655 52.3706 48.3129 51.7346 48.6309 51.4166C49.1256 50.9572 50.433 50.8512 57.2882 50.8512ZM74.002 54.7381C74.426 54.7381 74.956 54.9148 75.2034 55.1975C75.4861 55.4448 75.6274 56.0456 75.5568 56.5049C75.5214 57.035 75.0974 57.565 74.6027 57.8123C73.896 58.1657 73.5779 58.1657 73.0126 57.777C72.6239 57.5297 72.2352 57.035 72.1645 56.6463C72.0938 56.2929 72.3059 55.7275 72.6592 55.3742C72.9772 55.0208 73.5779 54.7381 74.002 54.7381ZM61.8818 58.6604C64.5673 58.6604 65.3447 58.7664 65.8394 59.2611C66.1928 59.6145 66.4755 60.2152 66.4755 60.5685C66.4755 60.9572 66.2988 61.4873 66.0514 61.7346C65.7687 62.0173 64.3906 62.194 61.8818 62.194C59.3376 62.194 58.0302 62.0526 57.7122 61.7346C57.4648 61.4873 57.2528 60.8512 57.2175 60.3212C57.1821 59.7205 57.3942 59.2611 57.8182 59.0138C58.2069 58.8371 60.009 58.6604 61.8818 58.6604Z" fill="url(#paint0_linear_298_5225)"/>
<path fill-rule="evenodd" clip-rule="evenodd" d="M74.8483 4.01735C76.615 4.08803 77.8871 4.40605 79.2652 5.04209C80.4666 5.60746 81.8801 6.70287 82.9048 7.86895C83.8942 8.92903 84.9189 10.5545 85.343 11.6852C85.9083 13.2047 86.0144 14.1941 85.9084 16.2789C85.767 18.2223 85.4843 19.4238 84.8129 20.7665C84.2829 21.7913 83.2582 23.24 82.5161 23.9467C81.7741 24.6888 80.3606 25.6782 79.4066 26.1729C77.9225 26.9149 77.1804 27.0563 74.3182 27.0563C71.35 27.0563 70.7493 26.9503 69.0885 26.0669C68.0991 25.5368 66.6857 24.5121 65.979 23.7701C65.2723 23.0633 64.2829 21.6499 63.7882 20.6958C63.2228 19.5651 62.8341 18.1163 62.7281 16.6322C62.6221 15.1128 62.7634 13.664 63.1168 12.3919C63.4348 11.3319 64.1768 9.77709 64.7422 8.92903C65.3429 8.11631 66.5443 6.91489 67.4277 6.27884C68.3111 5.67814 69.7952 4.86541 70.714 4.51205C71.8801 4.08803 73.1168 3.94668 74.8483 4.01735ZM29.0884 34.3001H33.6821V43.1341H29.0884V34.3001ZM37.2156 34.3001H47.1097V43.1341H37.2156V34.3001ZM50.6432 34.3001H61.244V43.1341H50.6432V34.3001ZM38.2757 55.5016L39.3005 56.4557C40.0425 57.1624 40.7846 58.6818 41.88 61.756C42.728 64.1589 43.3287 66.173 43.2581 66.279C43.1874 66.385 35.9082 66.4557 27.0743 66.4557C14.4947 66.4557 11.0672 66.3497 11.0672 65.9963C11.0672 65.7843 11.3852 64.6889 11.8092 63.6288C12.1979 62.5688 12.9046 60.6253 13.364 59.2825C14.0354 57.4804 14.5301 56.7384 15.3781 56.2083C16.4735 55.5369 17.1803 55.5016 38.2757 55.5016ZM6.89753 62.9575C7.63959 62.9221 8.24029 62.9928 8.24029 63.0988C8.24029 63.2048 7.92227 63.9822 7.53358 64.8656C6.8622 66.3497 6.75619 66.4557 5.66078 66.279C5.06007 66.173 4.42403 65.8903 4.28269 65.643C4.14134 65.3956 4 64.9716 4 64.6889C4 64.4062 4.14134 63.9822 4.28269 63.7702C4.42403 63.5582 4.77739 63.2755 5.06007 63.1695C5.34276 63.0635 6.19082 62.9575 6.89753 62.9575ZM47.6397 62.9221C48.3111 62.9221 49.1945 63.0635 49.5832 63.2755C50.0543 63.5111 50.2899 63.9822 50.2899 64.6889C50.2899 65.5016 50.0779 65.8197 49.4065 66.1023C48.9118 66.3144 48.2757 66.4557 47.9931 66.4557C47.7104 66.4557 47.2157 65.855 46.933 65.1129C46.615 64.4062 46.4029 63.5935 46.4029 63.3461C46.4029 63.0988 46.8976 62.9221 47.6397 62.9221ZM9.37104 69.9893H44.9895L45.5549 71.4734C45.9082 72.3568 46.2263 74.6183 46.5796 80.59H43.2227V77.6571C43.2227 75.3957 43.0814 74.6183 42.5867 74.1236C42.092 73.6289 41.3853 73.4875 38.6291 73.4875C35.7315 73.4875 35.0955 73.5935 34.0354 74.3356C33.2934 74.7949 32.622 75.643 32.3746 76.3497C32.1273 77.0211 31.9506 78.2579 31.9153 80.59H22.3746V78.7172C22.3746 77.3745 22.1626 76.5617 21.5619 75.643C21.1379 74.9716 20.3605 74.1942 19.9011 73.9822C19.3711 73.6995 17.6043 73.5229 15.5548 73.5229C12.3746 73.5229 12.0919 73.5935 11.5972 74.3002C11.2438 74.8656 11.0672 75.9964 11.0672 80.59H7.71026L7.95761 76.9858C8.09895 74.9716 8.45231 72.6041 8.77033 71.6501L9.37104 69.9893ZM14.6714 77.0564L18.6997 77.2331L18.8764 80.59H14.6361L14.6714 77.0564ZM39.7245 77.0918V80.6253H35.4842V79.3886C35.4842 78.7172 35.5549 77.9398 35.6962 77.6218C35.8375 77.2684 36.4383 77.0918 39.7245 77.0918ZM7.92227 84.1589H12.5159V87.3391H7.92227V84.1589ZM41.8446 84.1589H46.4383V87.3391H41.8446V84.1589Z" fill="#F8FAFB"/>
<path d="M72.6944 6.75221C72.6591 6.39885 72.7651 5.97482 72.9418 5.86881C73.1185 5.72747 73.5425 5.62146 73.8959 5.62146C74.2492 5.62146 74.7793 6.08083 75.0619 6.68153C75.3446 7.24691 75.804 7.74161 76.016 7.74161C76.2634 7.70627 76.7581 7.98896 77.1114 8.34232C77.4648 8.69567 77.7121 9.29638 77.6415 9.68508C77.5354 10.2504 77.2881 10.3565 75.2386 10.2151V11.9819C75.2386 13.6427 75.3093 13.784 76.4754 14.4554C77.1468 14.8441 77.9595 15.6922 78.2775 16.3282C78.6662 17.0703 78.7722 17.883 78.6309 18.8017C78.5248 19.5084 77.9595 20.6745 77.3588 21.3459C76.7581 22.0173 76.0867 22.5826 75.8747 22.5826C75.6273 22.5826 75.3093 23.0067 75.2033 23.5367C75.0619 24.1021 74.7086 24.6321 74.3906 24.8088C74.0725 24.9501 73.5778 24.9855 73.2951 24.8795C73.0125 24.7735 72.7651 24.3494 72.7651 23.9254C72.7651 23.2894 72.4824 23.0067 71.4577 22.6886C70.7156 22.4766 69.9029 22.0173 69.6909 21.7346C69.4435 21.4166 69.2669 20.8865 69.3375 20.5685C69.4082 20.1091 69.7262 19.9325 70.4683 19.9678C71.069 19.9678 71.811 20.1091 72.1291 20.2151C72.6944 20.4272 72.7651 20.2151 72.7651 17.989C72.7651 15.5155 72.7651 15.5155 71.5284 14.8088C70.857 14.4201 70.1503 13.784 69.9382 13.3953C69.7262 13.0066 69.5849 12.1939 69.5849 11.6285C69.5849 11.0632 69.8322 10.0738 70.1149 9.5084C70.3976 8.94302 71.1043 8.20097 71.705 7.91829C72.3764 7.60026 72.7298 7.1409 72.6944 6.75221Z" fill="url(#paint1_linear_298_5225)"/>
<path d="M75.769 19.4023C75.2743 20.2503 75.2743 20.1797 75.345 18.3776C75.3803 16.7521 75.4863 16.5401 75.9457 16.9288C76.2284 17.1761 76.4051 17.6355 76.3697 17.9535C76.2991 18.2715 76.0517 18.9076 75.769 19.4023Z" fill="#F8FAFB"/>
<defs>
<linearGradient id="paint0_linear_298_5225" x1="80.9159" y1="2.23888" x2="65.6678" y2="98.0448" gradientUnits="userSpaceOnUse">
<stop stop-color="#FF8C22"/>
<stop offset="1" stop-color="#E86216"/>
</linearGradient>
<linearGradient id="paint1_linear_298_5225" x1="77.8396" y1="6.09979" x2="71.7009" y2="25.1041" gradientUnits="userSpaceOnUse">
<stop stop-color="#FF8C22"/>
<stop offset="1" stop-color="#E86216"/>
</linearGradient>
</defs>
</svg>
