<svg width="92" height="64" viewBox="0 0 92 64" fill="none" xmlns="http://www.w3.org/2000/svg">
<path fill-rule="evenodd" clip-rule="evenodd" d="M23.1797 0.215281C19.743 1.07416 18.6332 2.42015 14.9432 10.206L12.0973 16.2103L11.256 15.3718C9.90186 14.0222 8.1729 13.4986 5.07042 13.4986C2.35714 13.4986 2.15517 13.5548 1.1058 14.6007C0.0862485 15.6168 0 15.894 0 18.1547C0 20.4155 0.0862485 20.6927 1.1058 21.7088C2.13001 22.7296 2.39703 22.8109 4.72938 22.8109C6.11441 22.8109 7.18499 22.932 7.1088 23.0795C5.33636 26.5111 4.89325 29.4047 5.12038 36.063C5.31048 41.6282 5.80534 43.6207 7.71003 46.4889C8.54126 47.7411 8.625 48.2042 8.62572 51.5462C8.62608 55.7819 9.13675 57.2214 11.104 58.5308C12.2062 59.2647 12.7485 59.3435 16.6743 59.3413C20.3291 59.3396 21.1873 59.2314 22.0509 58.664C23.7511 57.5469 24.4325 56.1805 24.435 53.8818L24.4375 51.8224H38.6583H52.8792L55.8185 54.7962C57.435 56.432 59.8198 58.5201 61.1178 59.437C64.1017 61.5448 68.894 64 70.0235 64C71.4251 64 77.7917 60.4663 80.9568 57.9316C84.7349 54.9058 87.626 51.4449 89.4466 47.7686C91.7998 43.0158 91.9885 41.6569 91.9946 29.4176L92 18.6533L90.9104 16.9409C89.88 15.3217 89.4858 15.0684 83.633 12.2704C75.3832 8.32631 74.2375 7.95847 70.1773 7.95238L66.8624 7.94701L65.9378 5.89544C64.7651 3.29264 63.5504 1.85604 61.6774 0.857473C60.2108 0.0755969 60.0099 0.066642 42.2266 0.00682831C32.3438 -0.0268393 23.7727 0.0673587 23.1797 0.215281ZM60.978 4.03512C62.1668 4.90762 64.189 8.41943 63.7391 8.83132C63.5688 8.98713 60.7613 10.3521 57.5 11.865C50.8861 14.933 49.2128 16.2103 48.5052 18.7296L48.0628 20.3037H30.8595C21.3979 20.3037 13.6685 20.1827 13.6836 20.0351C13.6983 19.8876 15.437 16.3012 17.5468 12.0659C20.9649 5.20418 21.5197 4.29658 22.6406 3.7339C23.8 3.15188 25.3086 3.10962 41.9312 3.19666C59.5484 3.2887 59.9869 3.30805 60.978 4.03512ZM74.1351 11.3722C76.7151 12.0863 87.4934 17.403 88.3512 18.3847L89.1947 19.3499L89.0513 29.9452C88.9097 40.4201 88.8968 40.5724 87.9121 43.4019C85.6556 49.8843 81.337 54.7332 74.0345 58.9839C70.4749 61.0555 70.2129 61.0702 66.9605 59.3757C60.9795 56.2597 56.2882 51.7342 53.747 46.629C51.6336 42.3829 51.4018 40.688 51.396 29.4273C51.3913 20.6519 51.4657 19.2819 51.9865 18.5405C52.5672 17.7146 61.7697 13.0677 65.5859 11.6737C67.6225 10.9298 71.981 10.7762 74.1351 11.3722ZM68.0663 14.9424C67.2563 15.1025 64.0694 16.4398 60.9841 17.9141C56.3389 20.1336 55.3351 20.75 55.1468 21.4979C55.0217 21.9946 54.9819 26.4019 55.058 31.2916C55.1856 39.4474 55.265 40.3743 56.0222 42.51C57.0842 45.5047 59.5398 49.1769 61.916 51.3231C64.4661 53.6268 68.9813 56.4785 70.0781 56.4785C71.2051 56.4785 75.9773 53.4567 78.3642 51.2314C80.7048 49.0494 83.0958 45.437 84.1362 42.51C84.9041 40.3503 84.9735 39.495 85.0975 30.6834C85.2222 21.8277 85.1866 21.1454 84.5724 20.6071C82.7353 18.9957 71.2486 14.3474 69.7597 14.6125C69.6383 14.634 68.8764 14.7826 68.0663 14.9424ZM9.26469 17.9603C9.91731 18.6698 10.354 19.4069 10.2357 19.5982C9.91803 20.1103 3.83022 20.038 3.30625 19.5158C2.74275 18.9542 2.75317 17.3492 3.32422 16.76C3.63759 16.4366 4.42462 16.3528 5.92573 16.4832C7.82611 16.6479 8.21675 16.8206 9.26469 17.9603ZM77.3555 20.3206L81.9375 22.5677V31.0502C81.9375 40.3381 81.7136 41.6712 79.584 45.0552C78.2464 47.1805 74.571 50.6598 72.1125 52.1275L70.1018 53.3281L68.7423 52.5082C64.2156 49.7779 60.7746 46.0598 59.2387 42.2389C58.4685 40.3234 58.4035 39.577 58.2931 31.3994L58.1746 22.6168L59.9035 21.7611C66.9986 18.2493 68.3912 17.7493 70.6172 17.9141C72.3469 18.0419 73.6798 18.5179 77.3555 20.3206ZM48.1562 29.6161V35.7049H40.2263C32.0616 35.7049 30.9062 35.8807 30.9062 37.1247C30.9062 38.8152 31.4938 38.9284 40.2755 38.9284H48.5156V40.1755V41.4226L40.0193 41.5186C32.3815 41.605 31.483 41.678 31.1265 42.2414C30.8376 42.6984 30.8376 43.038 31.1265 43.495C31.4841 44.0598 32.3987 44.1311 40.3862 44.2178L49.2491 44.3134L50.14 46.3216C50.6302 47.4262 51.0312 48.3904 51.0312 48.4642C51.0312 48.5383 43.1663 48.5989 33.5534 48.5989C21.1967 48.5989 15.6623 48.4753 14.665 48.1777C12.6622 47.5795 10.2717 45.3342 9.09434 42.9449C8.09959 40.9262 8.08594 40.8077 8.08594 34.2722C8.08594 27.9925 8.1305 27.562 8.93802 26.0344C9.40664 25.1479 9.95217 24.2214 10.1498 23.9749C10.4298 23.6272 14.706 23.5272 29.3329 23.5272H48.1562V29.6161ZM12.5505 29.2303C11.5895 30.1881 11.5 30.4911 11.5 32.7826C11.5 35.8328 11.6639 36.3019 12.9634 36.9717C14.4063 37.7153 25.419 37.7282 26.4353 36.9871C27.3179 36.3439 27.2949 33.7056 26.3932 32.1845C25.4836 30.6501 24.0131 29.947 19.7872 29.0272C14.6833 27.9166 13.8453 27.9398 12.5505 29.2303ZM76.3438 29.8901C76.1336 30.0348 74.3759 32.206 72.4378 34.7146C70.3135 37.4649 68.7531 39.1805 68.508 39.0355C68.2845 38.9029 67.2782 38.1802 66.272 37.4287C65.2657 36.6777 64.1872 36.063 63.8757 36.063C62.7688 36.063 62.1719 36.509 62.1719 37.3356C62.1719 37.961 62.9226 38.7525 65.1367 40.461C68.8868 43.3546 68.8465 43.3335 69.7011 42.8775C70.6743 42.3585 78.7031 31.836 78.7031 31.0795C78.7031 29.9141 77.322 29.2174 76.3438 29.8901ZM18.947 31.8084C22.1824 32.5083 23.7188 33.2038 23.7188 33.9696C23.7188 34.1361 21.6164 34.2722 19.0469 34.2722H14.375V32.6605C14.375 30.7511 14.2036 30.783 18.947 31.8084ZM17.7409 51.3994L21.6459 51.5462L21.4716 53.356C21.229 55.8729 20.7686 56.1203 16.3268 56.1203C11.9226 56.1203 11.757 55.9932 11.5568 52.4638L11.4155 49.9696L12.6256 50.6107C13.5057 51.077 14.9015 51.2923 17.7409 51.3994Z" fill="url(#paint0_linear_298_5224)"/>
<defs>
<linearGradient id="paint0_linear_298_5224" x1="83.6434" y1="1.58457" x2="76.1563" y2="70.293" gradientUnits="userSpaceOnUse">
<stop stop-color="#FF8C22"/>
<stop offset="1" stop-color="#E86216"/>
</linearGradient>
</defs>
</svg>
