<svg width="88" height="88" viewBox="0 0 88 88" fill="none" xmlns="http://www.w3.org/2000/svg">
<path d="M59.2167 46.0166C56.3444 43.4499 53.6097 40.9443 51.0125 38.4999C48.4153 36.0555 46.1409 33.6738 44.1893 31.3548C42.2378 29.0359 40.6794 26.7913 39.5143 24.6211C38.3492 22.4508 37.7667 20.3549 37.7667 18.3332C37.7667 15.1702 38.8428 12.5156 40.9952 10.3693C43.1474 8.22304 45.8095 7.1499 48.9813 7.1499C50.7937 7.1499 52.6014 7.65407 54.4042 8.6624C56.2069 9.67074 57.8111 11.0305 59.2167 12.7416C60.6222 11.0305 62.2264 9.67074 64.0292 8.6624C65.8319 7.65407 67.6396 7.1499 69.4521 7.1499C72.6239 7.1499 75.2859 8.22304 77.4382 10.3693C79.5905 12.5156 80.6667 15.1702 80.6667 18.3332C80.6667 20.3549 80.0841 22.4508 78.919 24.6211C77.7539 26.7913 76.1956 29.0359 74.244 31.3548C72.2924 33.6738 70.0126 36.0607 67.4046 38.5156C64.7966 40.9704 62.0673 43.4707 59.2167 46.0166ZM59.2167 38.4082C63.25 34.7416 66.9167 31.1055 70.2167 27.4999C73.5167 23.8943 75.1667 20.8388 75.1667 18.3332C75.1667 16.6574 74.6363 15.2912 73.5757 14.2346C72.515 13.1781 71.1435 12.6499 69.4611 12.6499C68.437 12.6499 67.4208 12.8943 66.4125 13.3832C65.4042 13.8721 64.3805 14.7888 63.3417 16.1332L59.2167 21.1749L55.0917 16.1332C54.0528 14.7888 53.0292 13.8721 52.0208 13.3832C51.0125 12.8943 49.9963 12.6499 48.9722 12.6499C47.2898 12.6499 45.9183 13.1781 44.8576 14.2346C43.797 15.2912 43.2667 16.6574 43.2667 18.3332C43.2667 20.8388 44.9167 23.8943 48.2167 27.4999C51.5167 31.1055 55.1833 34.7416 59.2167 38.4082ZM51.8833 82.3166L23.375 74.1582V79.3832H3.66666V43.2666H31.9917L55.3667 52.0666C57.0167 52.6777 58.4069 53.6707 59.5375 55.0457C60.668 56.4207 61.2333 58.3916 61.2333 60.9582H71.6833C74.25 60.9582 76.3889 61.8749 78.1 63.7082C79.8111 65.5416 80.6667 68.0166 80.6667 71.1332V73.5166L51.8833 82.3166ZM9.16666 73.8832H17.7833V48.7666H9.16666V73.8832ZM51.5167 76.6332L74.9833 69.4832C74.6167 68.3221 74.1583 67.5277 73.6083 67.0999C73.0583 66.6721 72.4167 66.4582 71.6833 66.4582H52.7083C50.875 66.4582 49.1792 66.336 47.6208 66.0916C46.0625 65.8471 44.5805 65.511 43.175 65.0832L35.75 62.7916L37.7667 57.4749L44.4583 59.6749C45.9861 60.1638 47.4375 60.4999 48.8125 60.6832C50.1875 60.8666 52.3722 60.9582 55.3667 60.9582C55.3667 60.2249 55.2292 59.5068 54.9542 58.8041C54.6792 58.1013 54.2055 57.5971 53.5333 57.2916L31.075 48.7666H23.375V68.3832L51.5167 76.6332Z" fill="url(#paint0_linear_298_5654)"/>
<defs>
<linearGradient id="paint0_linear_298_5654" x1="73.6726" y1="9.01095" x2="61.4716" y2="88.8001" gradientUnits="userSpaceOnUse">
<stop stop-color="#FF8C22"/>
<stop offset="1" stop-color="#E86216"/>
</linearGradient>
</defs>
</svg>
