<svg width="88" height="88" viewBox="0 0 88 88" fill="none" xmlns="http://www.w3.org/2000/svg">
<path d="M43.5417 75.1667C43.8472 75.1667 44.1986 75.0903 44.5958 74.9376C44.993 74.7848 45.3139 74.5862 45.5583 74.3417L76.45 43.3584C77.2444 42.5639 77.8403 41.6574 78.2375 40.6389C78.6347 39.6204 78.8333 38.6019 78.8333 37.5834C78.8333 36.5445 78.6347 35.5056 78.2375 34.4667C77.8403 33.4278 77.2444 32.5112 76.45 31.7167L59.95 15.2167C59.1555 14.4223 58.2389 13.8264 57.2 13.4292C56.1611 13.032 55.1222 12.8334 54.0833 12.8334C53.0648 12.8334 52.0463 13.032 51.0278 13.4292C50.0093 13.8264 49.1028 14.4223 48.3083 15.2167L46.6583 16.8667L54.0833 24.3834C54.8778 25.2389 55.5806 26.232 56.1917 27.3625C56.8028 28.4931 57.1083 29.7306 57.1083 31.075C57.1083 33.3973 56.2069 35.4445 54.4042 37.2167C52.6014 38.9889 50.5389 39.875 48.2167 39.875C46.6889 39.875 45.4208 39.6459 44.4125 39.1875C43.4042 38.7292 42.4818 38.0771 41.6455 37.2313L34.925 30.525L18.3333 47.1167C18.0278 47.4223 17.8139 47.7439 17.6917 48.0816C17.5694 48.4194 17.5083 48.7812 17.5083 49.1671C17.5083 49.9391 17.7681 50.5848 18.2875 51.1042C18.8069 51.6237 19.4537 51.8834 20.2278 51.8834C20.6148 51.8834 20.9764 51.7917 21.3125 51.6084C21.6486 51.425 21.9389 51.2112 22.1833 50.9667L34.8333 38.3167L38.6833 42.1667L26.125 54.725C25.8194 55.0306 25.6056 55.3667 25.4833 55.7334C25.3611 56.1 25.3 56.4667 25.3 56.8334C25.3 57.5667 25.575 58.2084 26.125 58.7584C26.675 59.3084 27.3167 59.5834 28.05 59.5834C28.4167 59.5834 28.7681 59.507 29.1042 59.3542C29.4403 59.2014 29.7306 59.0028 29.975 58.7584L42.625 46.1084L46.475 49.9584L33.9167 62.5167C33.6722 62.7612 33.4736 63.0769 33.3208 63.4639C33.1681 63.851 33.0917 64.238 33.0917 64.625C33.0917 65.3584 33.3667 66 33.9167 66.55C34.4667 67.1001 35.1083 67.375 35.8417 67.375C36.2083 67.375 36.5444 67.3139 36.85 67.1917C37.1556 67.0695 37.4611 66.8556 37.7667 66.55L50.4167 53.9001L54.2667 57.75L41.6167 70.4001C41.3111 70.7056 41.0972 71.0417 40.975 71.4084C40.8528 71.775 40.7917 72.1112 40.7917 72.4167C40.7917 73.2723 41.0361 73.9445 41.525 74.4334C42.0139 74.9223 42.6861 75.1667 43.5417 75.1667ZM43.5475 80.6667C41.527 80.6667 39.7222 79.9181 38.1333 78.4209C36.5444 76.9237 35.5972 75.0714 35.2917 72.8641C33.2139 72.5659 31.4722 71.7139 30.0667 70.3084C28.6611 68.9028 27.8056 67.1612 27.5 65.0834C25.4222 64.7778 23.6958 63.907 22.3208 62.4709C20.9458 61.0348 20.1056 59.3084 19.8 57.2917C17.5389 56.9862 15.675 56.0695 14.2083 54.5417C12.7417 53.0139 12.0083 51.1806 12.0083 49.0417C12.0083 48.0028 12.2138 46.9624 12.6247 45.9206C13.0356 44.8787 13.6246 43.9635 14.3917 43.175L34.925 22.6417L45.0083 32.725C45.4972 33.2139 46.0268 33.5959 46.5972 33.8709C47.1676 34.1459 47.738 34.2834 48.3083 34.2834C49.1028 34.2834 49.8514 33.932 50.5542 33.2292C51.2569 32.5264 51.6083 31.7731 51.6083 30.9693C51.6083 30.612 51.5014 30.2042 51.2875 29.7459C51.0736 29.2875 50.7222 28.8139 50.2333 28.325L37.125 15.2167C36.3306 14.4223 35.4139 13.8264 34.375 13.4292C33.3361 13.032 32.2972 12.8334 31.2583 12.8334C30.2398 12.8334 29.2213 13.032 28.2028 13.4292C27.1843 13.8264 26.2796 14.4179 25.4887 15.2036L11.55 29.15C10.6944 30.0056 10.0986 30.907 9.7625 31.8542C9.42639 32.8014 9.22778 33.8709 9.16666 35.0625C9.10555 36.2542 9.33472 37.4153 9.85416 38.5459C10.3736 39.6764 11 40.7001 11.7333 41.6167L7.79166 45.5584C6.56944 44.2139 5.57639 42.5945 4.8125 40.7001C4.04861 38.8056 3.66666 36.8806 3.66666 34.925C3.66666 33.0917 4.01805 31.3348 4.72083 29.6542C5.42361 27.9737 6.41666 26.4917 7.7 25.2084L21.5417 11.3667C22.8861 10.0223 24.4076 9.02922 26.106 8.38755C27.8045 7.74588 29.5462 7.42505 31.331 7.42505C33.1159 7.42505 34.8486 7.74588 36.5292 8.38755C38.2097 9.02922 39.7222 10.0223 41.0667 11.3667L42.7167 13.0167L44.3667 11.3667C45.7111 10.0223 47.2326 9.02922 48.931 8.38755C50.6295 7.74588 52.3712 7.42505 54.156 7.42505C55.9409 7.42505 57.6736 7.74588 59.3542 8.38755C61.0347 9.02922 62.5472 10.0223 63.8917 11.3667L80.3 27.775C81.6444 29.1195 82.6528 30.6483 83.325 32.3614C83.9972 34.0745 84.3333 35.8162 84.3333 37.5864C84.3333 39.3566 83.9972 41.082 83.325 42.7626C82.6528 44.4431 81.6444 45.9556 80.3 47.3L49.4083 78.1917C48.6139 78.9862 47.7115 79.5973 46.7012 80.025C45.6909 80.4528 44.6397 80.6667 43.5475 80.6667Z" fill="url(#paint0_linear_298_5656)"/>
<defs>
<linearGradient id="paint0_linear_298_5656" x1="77.0062" y1="9.23844" x2="65.9145" y2="87.2246" gradientUnits="userSpaceOnUse">
<stop stop-color="#FF8C22"/>
<stop offset="1" stop-color="#E86216"/>
</linearGradient>
</defs>
</svg>
