<svg width="32" height="32" viewBox="0 0 32 32" fill="none" xmlns="http://www.w3.org/2000/svg">
<g clip-path="url(#clip0_298_5674)">
<path d="M32 16.0973C32 7.20755 24.836 0 16 0C7.164 0 0 7.20755 0 16.0973C0 24.1325 5.85067 30.7914 13.5 31.9987V20.7507H9.43733V16.0959H13.5V12.5519C13.5 8.51813 15.8893 6.28866 19.544 6.28866C21.2933 6.28866 23.1253 6.60391 23.1253 6.60391V10.5652H21.1067C19.1187 10.5652 18.4987 11.806 18.4987 13.0791V16.0973H22.936L22.2267 20.752H18.4987V32C26.1493 30.7914 32 24.1312 32 16.0973Z" fill="url(#paint0_linear_298_5674)"/>
</g>
<defs>
<linearGradient id="paint0_linear_298_5674" x1="29.0934" y1="0.792286" x2="23.7785" y2="34.7219" gradientUnits="userSpaceOnUse">
<stop stop-color="#FF8C22"/>
<stop offset="1" stop-color="#E86216"/>
</linearGradient>
<clipPath id="clip0_298_5674">
<rect width="32" height="32" fill="white"/>
</clipPath>
</defs>
</svg>
