<svg width="24" height="24" viewBox="0 0 24 24" fill="none" xmlns="http://www.w3.org/2000/svg">
<path d="M15.0697 24H10.0465V15.9069H8.98602C8.33857 15.9069 7.81393 15.3823 7.81393 14.7349V12.6139C7.81393 11.9665 8.33857 11.4418 8.98602 11.4418H10.0465V8.65113C10.0465 6.34044 11.9218 4.46509 14.2325 4.46509H17.2465C17.8939 4.46509 18.4186 4.98973 18.4186 5.63717V8.31626C18.4186 8.9637 17.8939 9.48834 17.2465 9.48834H15.0697V11.4418H17.1684C17.5256 11.4418 17.8493 11.5981 18.0725 11.866C18.2958 12.1339 18.3851 12.4911 18.3181 12.8372L17.8939 14.9581C17.7823 15.5051 17.3023 15.8958 16.7442 15.8958H15.0697V24ZM11.7209 22.3256H13.3953V14.2325H16.3423L16.5656 13.1163H13.4065V8.98601C13.4065 8.33856 13.9311 7.81392 14.5786 7.81392H16.7553V6.13951H14.2325C12.8484 6.13951 11.7209 7.26695 11.7209 8.65113V13.1163H9.48835V14.2325H11.7209V22.3256Z" fill="#A4A4A4"/>
<path d="M15.3488 24H8.65116C2.58977 24 0 21.4102 0 15.3488V8.65116C0 2.58977 2.58977 0 8.65116 0H15.3488C21.4102 0 24 2.58977 24 8.65116V15.3488C24 21.4102 21.4102 24 15.3488 24ZM8.65116 1.67442C3.50512 1.67442 1.67442 3.50512 1.67442 8.65116V15.3488C1.67442 20.4949 3.50512 22.3256 8.65116 22.3256H15.3488C20.4949 22.3256 22.3256 20.4949 22.3256 15.3488V8.65116C22.3256 3.50512 20.4949 1.67442 15.3488 1.67442H8.65116Z" fill="#A4A4A4"/>
</svg>
