<svg width="32" height="32" viewBox="0 0 32 32" fill="none" xmlns="http://www.w3.org/2000/svg">
<path d="M7.1 26.1666C6.13124 25.1666 5.37239 24.0111 4.82343 22.7C4.27448 21.3888 4 20.0444 4 18.6666C4 17.0444 4.28333 15.5611 4.85 14.2166C5.41667 12.8722 6.26667 11.6333 7.4 10.5C8.17778 9.72218 9.14444 9.06662 10.3 8.53329C11.4556 7.99996 12.8167 7.58329 14.3833 7.28329C15.95 6.98329 17.7222 6.7944 19.7 6.71662C21.6778 6.63885 23.8778 6.67773 26.3 6.83329C26.4778 9.23329 26.5389 11.4277 26.4833 13.4166C26.4278 15.4055 26.25 17.1916 25.95 18.775C25.65 20.3583 25.2278 21.7423 24.6833 22.9271C24.1389 24.1118 23.4667 25.1028 22.6667 25.9C21.5333 27.0333 20.3111 27.8888 19 28.4666C17.6889 29.0444 16.2889 29.3333 14.8 29.3333C13.2667 29.3333 11.8611 29.0722 10.5833 28.55C9.30556 28.0277 8.14444 27.2333 7.1 26.1666ZM10.5333 26.1666C11.0889 26.5444 11.7333 26.8333 12.4667 27.0333C13.2 27.2333 13.9769 27.3333 14.7974 27.3333C15.9769 27.3333 17.1222 27.0888 18.2333 26.6C19.3444 26.1111 20.3556 25.4 21.2667 24.4666C21.8667 23.8666 22.3778 23.0833 22.8 22.1166C23.2222 21.15 23.5667 20.0055 23.8333 18.6833C24.1 17.3611 24.2778 15.8666 24.3667 14.2C24.4556 12.5333 24.4556 10.7 24.3667 8.69996C22.2778 8.65551 20.4056 8.68329 18.75 8.78329C17.0944 8.88329 15.6333 9.06662 14.3667 9.33329C13.1 9.59996 12.0111 9.93885 11.1 10.35C10.1889 10.7611 9.44444 11.2666 8.86667 11.8666C7.93333 12.8222 7.22222 13.8333 6.73333 14.9C6.24444 15.9666 6 17.0555 6 18.1666C6 19.2333 6.22778 20.35 6.68333 21.5166C7.13889 22.6833 7.7 23.6222 8.36667 24.3333C9.54444 22.1555 10.9556 20.2 12.6 18.4666C14.2444 16.7333 15.9889 15.3666 17.8333 14.3666C15.9 16.0333 14.3333 17.8388 13.1333 19.7833C11.9333 21.7277 11.0667 23.8555 10.5333 26.1666Z" fill="#32D957"/>
</svg>
