<svg width="113" height="60" viewBox="0 0 113 60" fill="none" xmlns="http://www.w3.org/2000/svg">
<path d="M4.22039 52.5698C4.22039 52.4819 4.24634 52.4043 4.29825 52.3475C4.35017 52.2854 4.42803 52.2596 4.53705 52.2596H4.99906C5.10807 52.2596 5.18594 52.2854 5.23266 52.3475C5.28457 52.4095 5.31572 52.4871 5.31572 52.5698V56.727C5.31572 57.0269 5.37801 57.2389 5.51298 57.3733C5.64276 57.5078 5.83483 57.575 6.09958 57.575H7.44927C7.56347 57.575 7.64134 57.6008 7.69325 57.6577C7.73997 57.7146 7.76593 57.7921 7.76593 57.8852V58.1334C7.76593 58.211 7.73997 58.2937 7.69325 58.3557C7.64653 58.4178 7.56347 58.4488 7.44927 58.4488H5.87636C5.33648 58.4488 4.92638 58.304 4.64606 58.0145C4.36574 57.7249 4.22558 57.3113 4.22558 56.7684L4.22039 52.5698ZM8.76262 54.7777H8.35772C8.24351 54.7777 8.16564 54.7466 8.11373 54.6846C8.06182 54.6174 8.03587 54.5346 8.04106 54.4519V54.2451C8.04106 54.1572 8.06701 54.0848 8.11373 54.0228C8.16564 53.9607 8.24351 53.9348 8.35772 53.9348H9.48419C9.5932 53.9348 9.67107 53.9607 9.72298 54.0228C9.77489 54.0848 9.80085 54.1572 9.80085 54.2451V58.1386C9.80085 58.2213 9.77489 58.2989 9.72298 58.3609C9.67107 58.423 9.5932 58.454 9.48419 58.454H9.07928C8.97027 58.454 8.88721 58.4281 8.84049 58.3609C8.78858 58.2989 8.76262 58.2213 8.76781 58.1386V54.7777H8.76262ZM9.07928 53.1851C8.97027 53.1851 8.88721 53.1593 8.84049 53.0972C8.78858 53.0352 8.76262 52.9524 8.76781 52.8697V52.5698C8.76781 52.4819 8.79377 52.4043 8.84049 52.3475C8.88721 52.2854 8.97027 52.2596 9.07928 52.2596H9.48419C9.5932 52.2596 9.67107 52.2854 9.72298 52.3475C9.77489 52.4095 9.80085 52.4871 9.80085 52.5698V52.8697C9.80604 52.9524 9.77489 53.0352 9.72298 53.0972C9.67107 53.1541 9.5932 53.1851 9.48419 53.1851H9.07928ZM11.1609 54.2503C11.1609 54.1624 11.1869 54.09 11.2388 54.0279C11.2907 53.9659 11.3738 53.94 11.4724 53.94H11.8773C11.9863 53.94 12.0642 53.9659 12.1161 54.0279C12.1732 54.09 12.1992 54.1624 12.1992 54.2503V54.7621L12.4899 54.4623C12.6456 54.2968 12.8325 54.1572 13.0401 54.0434C13.2478 53.9297 13.5021 53.8728 13.8084 53.8728C14.1874 53.8728 14.4936 53.9814 14.7428 54.1882C14.9868 54.4002 15.1114 54.7828 15.1114 55.3257V58.1437C15.1114 58.2316 15.0906 58.304 15.0387 58.3661C14.992 58.4281 14.9089 58.4591 14.7999 58.4591H14.395C14.2808 58.4591 14.2029 58.4333 14.151 58.3661C14.0991 58.304 14.0731 58.2265 14.0783 58.1437V55.5222C14.0783 55.212 14.016 54.9948 13.8915 54.8862C13.7721 54.7828 13.6163 54.726 13.4554 54.726C13.2633 54.726 13.0713 54.7983 12.8896 54.9483C12.7079 55.0931 12.5573 55.2275 12.4328 55.3464L12.1992 55.5791V58.1437C12.2043 58.2265 12.1732 58.304 12.1213 58.3661C12.0694 58.4281 11.9915 58.4591 11.8825 58.4591H11.4776C11.3738 58.4591 11.2907 58.4333 11.2388 58.3661C11.1869 58.304 11.1609 58.2265 11.1609 58.1437V54.2503ZM16.4507 52.5698C16.4507 52.4819 16.4766 52.4043 16.5337 52.3475C16.5857 52.2854 16.6635 52.2596 16.7673 52.2596H17.1723C17.2761 52.2596 17.3591 52.2854 17.4059 52.3475C17.4578 52.4095 17.4837 52.4871 17.4837 52.5698V54.757L17.7744 54.4571C17.9353 54.2916 18.117 54.152 18.3247 54.0383C18.5323 53.9245 18.7867 53.8676 19.093 53.8676C19.4667 53.8676 19.7782 53.9814 20.0274 54.2089C20.2714 54.4364 20.3959 54.8397 20.3959 55.4085V58.1386C20.3959 58.2161 20.37 58.2989 20.3233 58.3609C20.2765 58.423 20.1935 58.454 20.0845 58.454H19.6848C19.5757 58.454 19.4927 58.4281 19.446 58.3609C19.3941 58.2989 19.3681 58.2213 19.3733 58.1386V55.5171C19.3733 55.2068 19.311 54.9897 19.1812 54.8811C19.0618 54.7777 18.9061 54.7208 18.7452 54.7208C18.5479 54.7208 18.361 54.7932 18.1793 54.9431C17.9976 55.0879 17.8471 55.2223 17.7225 55.3413L17.4889 55.5739V58.1386C17.4889 58.2213 17.463 58.2989 17.411 58.3609C17.3591 58.423 17.2813 58.454 17.1774 58.454H16.7673C16.6583 58.454 16.5805 58.4281 16.5286 58.3609C16.4766 58.2989 16.4455 58.2213 16.4455 58.1386L16.4507 52.5698ZM21.4861 56.2565C21.4861 55.5533 21.7353 54.9897 22.244 54.5657C22.7527 54.1468 23.3185 53.9348 23.9467 53.9348H25.1925C25.2964 53.9348 25.3742 53.9607 25.4261 54.0228C25.4781 54.0848 25.504 54.1572 25.504 54.2451V58.1386C25.504 58.2213 25.4781 58.2989 25.4261 58.3609C25.3742 58.423 25.2912 58.454 25.1925 58.454H24.7876C24.6786 58.454 24.6008 58.4281 24.5488 58.3609C24.4969 58.2989 24.471 58.2213 24.471 58.1386V57.668L24.1387 57.9679C23.9674 58.1231 23.7754 58.2523 23.5677 58.3609C23.3601 58.4695 23.1057 58.5212 22.8046 58.5212C22.4568 58.5264 22.1194 58.3971 21.8702 58.1541C21.6107 57.9111 21.4861 57.5129 21.4861 56.9648V56.2565ZM22.5191 56.8769C22.5191 57.1872 22.5814 57.3992 22.7008 57.5026C22.8254 57.606 22.9655 57.6577 23.142 57.6577C23.3445 57.6577 23.5521 57.5853 23.7546 57.4302C23.9571 57.2802 24.1232 57.151 24.2426 57.0476L24.4658 56.8252V54.7777H24.0038C23.5781 54.7777 23.2251 54.9121 22.9396 55.1758C22.6593 55.4395 22.5191 55.7963 22.5191 56.2513V56.8769ZM26.6513 57.818C26.6513 57.7301 26.672 57.668 26.7187 57.6267C26.7603 57.5853 26.8226 57.5698 26.8952 57.5698H26.9368L26.9835 57.5801C27.1859 57.6112 27.3728 57.637 27.5389 57.6525C27.705 57.668 27.8919 57.6732 28.0892 57.6732C28.3591 57.6732 28.5979 57.637 28.7952 57.5595C28.9925 57.4819 29.0911 57.3371 29.0911 57.12C29.0963 56.9752 29.0132 56.8407 28.8834 56.7735C28.7433 56.696 28.5927 56.6391 28.437 56.5977L27.7466 56.4426C27.4143 56.3599 27.1496 56.2203 26.942 56.0341C26.7343 55.8428 26.6305 55.5688 26.6305 55.2068C26.6305 54.7518 26.8226 54.4209 27.2015 54.1986C27.5857 53.9762 28.0477 53.8676 28.5979 53.8676C28.816 53.8676 29.0028 53.878 29.1534 53.8883C29.2987 53.9038 29.47 53.9297 29.6569 53.9659C29.7452 53.9762 29.8075 54.0072 29.849 54.0589C29.8853 54.1055 29.9061 54.1779 29.9061 54.2658V54.5553C29.9061 54.6381 29.8853 54.7001 29.8438 54.7466C29.7971 54.7932 29.7348 54.8139 29.6725 54.8139L29.579 54.8035L29.4545 54.7828C29.3247 54.7621 29.1897 54.7518 29.0599 54.7363C28.9094 54.7208 28.7537 54.7156 28.5979 54.7156C28.3332 54.7156 28.1152 54.7518 27.9387 54.8242C27.7673 54.8966 27.6791 55.031 27.6791 55.2172C27.6791 55.3723 27.7414 55.4757 27.8556 55.5274C27.9698 55.5791 28.0996 55.6256 28.2449 55.667L28.8523 55.8066C29.2001 55.8894 29.5012 56.0238 29.7607 56.2048C30.0203 56.3909 30.1449 56.696 30.1449 57.1303C30.1449 57.668 29.932 58.0403 29.5012 58.2316C29.0755 58.4281 28.5979 58.5264 28.0892 58.5264C27.8867 58.5264 27.6843 58.516 27.4818 58.5005C27.295 58.4798 27.1081 58.454 26.916 58.4333C26.8122 58.4178 26.7395 58.3816 26.7084 58.3299C26.6668 58.2678 26.6513 58.1954 26.6513 58.1231V57.818ZM33.1454 56.2565C33.1454 55.5533 33.3945 54.9897 33.9033 54.5657C34.412 54.1468 34.9778 53.9348 35.6059 53.9348H36.8518C36.9556 53.9348 37.0387 53.9607 37.0906 54.0228C37.1425 54.0848 37.1685 54.1572 37.1685 54.2451V58.1386C37.1685 58.2213 37.1425 58.2989 37.0906 58.3609C37.0387 58.423 36.9556 58.454 36.8518 58.454H36.4469C36.3379 58.454 36.26 58.4281 36.2081 58.3609C36.1562 58.2989 36.1251 58.2213 36.1302 58.1386V57.668L35.798 57.9679C35.6267 58.1231 35.4294 58.2523 35.227 58.3609C35.0193 58.4695 34.765 58.5212 34.4639 58.5212C34.1161 58.5264 33.7787 58.3971 33.5295 58.1541C33.2699 57.9111 33.1454 57.5129 33.1454 56.9648V56.2565ZM34.1784 56.8769C34.1784 57.1872 34.2407 57.3992 34.3601 57.5026C34.4847 57.606 34.63 57.6577 34.8013 57.6577C35.0038 57.6577 35.2114 57.5853 35.4139 57.4302C35.6163 57.2802 35.7824 57.151 35.9018 57.0476L36.1251 56.8252V54.7777H35.663C35.2374 54.7777 34.8844 54.9121 34.5989 55.1758C34.3185 55.4395 34.1784 55.7963 34.1784 56.2513V56.8769ZM38.2378 55.8118C38.2378 55.1706 38.4455 54.6898 38.866 54.364C39.2865 54.0383 39.7952 53.8728 40.3922 53.8728C40.8749 53.8728 41.285 53.9762 41.6225 54.183C41.9599 54.3899 42.1364 54.7363 42.1364 55.212C42.1364 55.6412 42.0066 55.9669 41.7419 56.1841C41.4823 56.4012 41.1137 56.5098 40.6517 56.5098H39.2709V56.7063C39.2709 57.0476 39.3799 57.2906 39.5979 57.4354C39.816 57.5801 40.0703 57.6525 40.3662 57.6525C40.5946 57.6525 40.8023 57.6319 40.9891 57.5905C41.176 57.5491 41.3421 57.5078 41.4875 57.4767L41.5498 57.4664L41.6017 57.4612L41.7419 57.5181C41.7782 57.5595 41.799 57.6112 41.799 57.6836V57.9369C41.799 58.0352 41.7834 58.1179 41.7471 58.1799C41.7159 58.242 41.6536 58.2833 41.5654 58.3092C41.4252 58.3506 41.2487 58.3868 41.0203 58.4385C40.7971 58.485 40.5687 58.5057 40.3351 58.5057C39.7433 58.5057 39.2501 58.3661 38.8452 58.0817C38.4403 57.7973 38.2378 57.332 38.2378 56.6805V55.8118ZM39.2709 55.8842H40.3818C40.6621 55.8842 40.8594 55.8325 40.9684 55.7291C41.0774 55.6308 41.1293 55.4809 41.1293 55.2896C41.1293 55.0827 41.0566 54.9328 40.9113 54.8552C40.7659 54.7725 40.579 54.7311 40.361 54.7311C40.0236 54.7311 39.7588 54.819 39.5616 55C39.3695 55.1758 39.2709 55.4498 39.2709 55.8325V55.8842ZM39.8056 53.2937L39.681 53.2575L39.6395 53.1851L39.6498 53.1334L39.6914 53.0714L40.2624 52.2647C40.3091 52.1923 40.3558 52.1303 40.4181 52.0786C40.4752 52.0321 40.5583 52.0062 40.6621 52.0062H41.1916C41.2747 52.0062 41.3318 52.0165 41.3681 52.0424L41.4148 52.1406L41.3889 52.2337L41.3162 52.3164L40.5219 53.0765C40.4545 53.1334 40.3818 53.1903 40.3091 53.2368C40.2468 53.2782 40.1741 53.2989 40.1015 53.2989L39.8056 53.2937ZM43.1331 54.2503C43.1331 54.1624 43.159 54.09 43.2161 54.0279C43.2681 53.9659 43.3459 53.94 43.4497 53.94H43.8546C43.9637 53.94 44.0415 53.9659 44.0934 54.0279C44.1505 54.09 44.1713 54.1624 44.1713 54.2503V54.7932L44.2492 54.6949C44.3997 54.4674 44.5814 54.2813 44.7891 54.1365C44.9967 53.9917 45.2303 53.9193 45.5002 53.9193H45.5418C45.6456 53.9193 45.7286 53.9452 45.7806 54.0072C45.8325 54.0641 45.8584 54.1417 45.8584 54.2347V54.5657C45.8584 54.6639 45.8325 54.7415 45.7806 54.7932C45.7286 54.85 45.6456 54.8759 45.5418 54.8759H45.4587C45.2926 54.8759 45.1317 54.9018 44.9759 54.9483C44.8202 54.9948 44.6852 55.0724 44.571 55.1706C44.5658 55.1706 44.4983 55.2327 44.3738 55.3516C44.3063 55.4188 44.2388 55.4809 44.1713 55.5429V58.1386C44.1713 58.2265 44.1505 58.2989 44.0934 58.3609C44.0415 58.423 43.9637 58.454 43.8598 58.454H43.4497C43.3407 58.454 43.2629 58.4281 43.2161 58.3609C43.1642 58.2989 43.1331 58.2213 43.1331 58.1386V54.2503ZM46.2789 55.8118C46.2789 55.1706 46.4865 54.6898 46.907 54.364C47.3275 54.0383 47.8362 53.8728 48.4332 53.8728C48.916 53.8728 49.3261 53.9762 49.6635 54.183C50.0009 54.3899 50.1723 54.7363 50.1723 55.212C50.1723 55.6412 50.0425 55.9669 49.7777 56.1841C49.5182 56.4012 49.1548 56.5098 48.6876 56.5098H47.3119V56.7063C47.3119 57.0476 47.421 57.2906 47.6338 57.4354C47.8518 57.5801 48.1062 57.6525 48.4021 57.6525C48.6305 57.6525 48.8381 57.6319 49.025 57.5905C49.2119 57.5491 49.378 57.5078 49.5182 57.4767L49.5805 57.4664L49.6376 57.4612L49.7725 57.5181C49.8089 57.5595 49.8296 57.6112 49.8296 57.6836V57.9369C49.8296 58.0352 49.8141 58.1179 49.7829 58.1799C49.7466 58.242 49.6895 58.2833 49.596 58.3092C49.4559 58.3506 49.2742 58.3868 49.0562 58.4385C48.8329 58.485 48.5993 58.5057 48.3709 58.5057C47.7791 58.5057 47.2808 58.3661 46.8759 58.0817C46.471 57.7973 46.2737 57.332 46.2737 56.6805L46.2789 55.8118ZM47.3171 55.8842H48.428C48.7084 55.8842 48.9056 55.8325 49.0094 55.7291C49.1185 55.6308 49.1704 55.4809 49.1704 55.2896C49.1704 55.0827 49.0977 54.9328 48.9523 54.8552C48.807 54.7725 48.6201 54.7311 48.4021 54.7311C48.0647 54.7311 47.7999 54.819 47.6078 55C47.4106 55.1758 47.3171 55.4498 47.3171 55.8325V55.8842ZM50.925 56.2565C50.925 55.5533 51.1793 54.9897 51.6829 54.5657C52.1916 54.1468 52.7574 53.9348 53.3908 53.9348H54.6366C54.7404 53.9348 54.8183 53.9607 54.8702 54.0228C54.9221 54.0848 54.9481 54.1572 54.9481 54.2451V58.1386C54.9481 58.2213 54.9221 58.2989 54.8702 58.3609C54.8183 58.423 54.7353 58.454 54.6366 58.454H54.2317C54.1227 58.454 54.0448 58.4281 53.9929 58.3609C53.941 58.2989 53.9151 58.2213 53.9151 58.1386V57.668L53.5828 57.9679C53.4115 58.1231 53.2194 58.2523 53.0118 58.3609C52.8042 58.4695 52.5498 58.5212 52.2487 58.5212C51.9009 58.5264 51.5635 58.3971 51.3143 58.1541C51.0547 57.9111 50.9302 57.5129 50.9302 56.9648L50.925 56.2565ZM51.958 56.8769C51.958 57.1872 52.0203 57.3992 52.1397 57.5026C52.2591 57.606 52.4096 57.6577 52.5809 57.6577C52.7834 57.6577 52.991 57.5853 53.1935 57.4302C53.3959 57.2802 53.5621 57.151 53.6815 57.0476L53.9047 56.8252V54.7777H53.4427C53.017 54.7777 52.664 54.9121 52.3785 55.1758C52.0982 55.4395 51.958 55.7963 51.958 56.2513V56.8769ZM56.0901 57.818C56.0901 57.7301 56.1109 57.668 56.1576 57.6267C56.1992 57.5853 56.2614 57.5698 56.3341 57.5698H56.3756L56.4224 57.5801C56.6248 57.6112 56.8117 57.637 56.983 57.6525C57.1491 57.668 57.3308 57.6732 57.5281 57.6732C57.8032 57.6732 58.0368 57.637 58.2341 57.5595C58.4365 57.4819 58.5352 57.3371 58.5352 57.12C58.5403 56.9752 58.4573 56.8407 58.3275 56.7735C58.1874 56.696 58.0368 56.6391 57.8811 56.5977L57.1907 56.4426C56.8584 56.3599 56.5885 56.2203 56.3808 56.0341C56.1732 55.848 56.0694 55.5688 56.0694 55.2068C56.0694 54.7518 56.2614 54.4209 56.6404 54.1986C57.0245 53.9762 57.4866 53.8676 58.0316 53.8676C58.2548 53.8676 58.4417 53.878 58.5871 53.8883C58.7376 53.9038 58.9089 53.9297 59.0958 53.9659C59.1841 53.9762 59.2463 54.0072 59.2879 54.0589C59.3242 54.1055 59.345 54.1779 59.345 54.2658V54.5553C59.345 54.6381 59.3242 54.7001 59.2827 54.7466C59.236 54.7932 59.1737 54.8139 59.1114 54.8139L59.0179 54.8035L58.8933 54.7828C58.7791 54.7673 58.6442 54.7518 58.4988 54.7363C58.3535 54.7208 58.1977 54.7156 58.0368 54.7156C57.7721 54.7156 57.554 54.7518 57.3775 54.8242C57.2062 54.8966 57.118 55.031 57.118 55.2172C57.118 55.3723 57.1803 55.4757 57.2945 55.5274C57.4087 55.5791 57.5385 55.6256 57.6838 55.667L58.2912 55.8066C58.639 55.8894 58.9401 56.0238 59.1996 56.2048C59.4592 56.3909 59.5838 56.696 59.5838 57.1303C59.5838 57.668 59.3709 58.0403 58.9401 58.2316C58.5144 58.4281 58.042 58.5264 57.5229 58.5264C57.2997 58.5264 57.0972 58.516 56.9207 58.5005C56.7442 58.4798 56.5573 58.4591 56.3549 58.4333C56.2511 58.4178 56.1784 58.3816 56.1472 58.3299C56.1057 58.2678 56.0901 58.1954 56.0901 58.1231V57.818ZM62.9736 54.7777H62.5687C62.4545 54.7777 62.3766 54.7466 62.3247 54.6846C62.2728 54.6174 62.2468 54.5346 62.252 54.4519V54.2451C62.252 54.1572 62.278 54.0848 62.3247 54.0228C62.3766 53.9607 62.4545 53.9348 62.5687 53.9348H63.6951C63.799 53.9348 63.882 53.9607 63.9287 54.0228C63.9807 54.0848 64.0066 54.1572 64.0066 54.2451V58.1386C64.0066 58.2213 63.9807 58.2989 63.9287 58.3609C63.8768 58.423 63.799 58.454 63.6951 58.454H63.285C63.176 58.454 63.093 58.4281 63.0462 58.3609C62.9943 58.2989 62.9684 58.2213 62.9736 58.1386V54.7777ZM63.285 53.1851C63.176 53.1851 63.093 53.1593 63.0462 53.0972C62.9943 53.0352 62.9684 52.9524 62.9736 52.8697V52.5698C62.9736 52.4819 62.9995 52.4043 63.0462 52.3475C63.093 52.2854 63.176 52.2596 63.285 52.2596H63.6951C63.799 52.2596 63.882 52.2854 63.9287 52.3475C63.9807 52.4095 64.0066 52.4871 64.0066 52.5698V52.8697C64.0118 52.9524 63.9807 53.0352 63.9287 53.0972C63.8768 53.1541 63.799 53.1851 63.6951 53.1851H63.285ZM65.3719 54.2503C65.3719 54.1624 65.3978 54.09 65.4497 54.0279C65.5017 53.9659 65.5847 53.94 65.6833 53.94H66.0934C66.1973 53.94 66.2751 53.9659 66.327 54.0279C66.379 54.09 66.4049 54.1624 66.4049 54.2503V54.7621L66.6956 54.4623C66.8565 54.2968 67.0382 54.1572 67.2459 54.0434C67.4535 53.9297 67.7079 53.8728 68.009 53.8728C68.3879 53.8728 68.6994 53.9814 68.9434 54.1882C69.1874 54.4002 69.3119 54.7828 69.3119 55.3257V58.1437C69.3119 58.2265 69.286 58.304 69.2393 58.3661C69.1926 58.4281 69.1095 58.4591 68.9953 58.4591H68.5904C68.4814 58.4591 68.3983 58.4333 68.3464 58.3661C68.2945 58.304 68.2737 58.2265 68.2737 58.1437V55.5222C68.2737 55.212 68.2114 54.9948 68.0868 54.8862C67.9674 54.7828 67.8117 54.726 67.6508 54.726C67.4587 54.726 67.2718 54.7983 67.0849 54.9483C66.924 55.0724 66.7735 55.2068 66.6281 55.3464L66.3945 55.5791V58.1437C66.3945 58.2265 66.3686 58.304 66.3167 58.3661C66.2647 58.4281 66.1817 58.4591 66.0831 58.4591H65.673C65.5691 58.4591 65.4861 58.4333 65.4394 58.3661C65.3874 58.304 65.3615 58.2265 65.3615 58.1437L65.3719 54.2503ZM70.7291 54.7777H70.3865C70.2775 54.7777 70.1944 54.7466 70.1477 54.6846C70.101 54.6225 70.075 54.545 70.075 54.4519V54.2451C70.075 54.1572 70.101 54.0848 70.1477 54.0228C70.1944 53.9607 70.2775 53.9348 70.3865 53.9348H70.7291V53.1748C70.7291 53.092 70.7551 53.0145 70.807 52.9524C70.8589 52.8904 70.9368 52.8594 71.0406 52.8594H71.4455C71.5493 52.8594 71.6324 52.8904 71.6843 52.9524C71.7362 53.0145 71.7622 53.0869 71.7622 53.1748V53.9348H72.6654C72.7744 53.9348 72.8575 53.9607 72.9094 54.0228C72.9561 54.0848 72.9821 54.1572 72.9821 54.2451V54.4519C72.9821 54.545 72.9613 54.6225 72.9094 54.6846C72.8575 54.7466 72.7796 54.7777 72.6654 54.7777H71.7622V56.6598C71.7622 57.0321 71.8296 57.2854 71.9594 57.4147C72.0944 57.5491 72.3228 57.6112 72.6498 57.6112H72.8004C72.9042 57.6112 72.9873 57.6422 73.034 57.7042C73.0911 57.7715 73.117 57.8542 73.117 57.9421V58.1437C73.1222 58.2265 73.0911 58.304 73.0392 58.3661C72.9873 58.4281 72.9094 58.4591 72.8004 58.4591H72.3591C71.8452 58.4591 71.4455 58.3299 71.16 58.0714C70.8745 57.8128 70.7291 57.4043 70.7291 56.8459V54.7777ZM73.7607 55.8118C73.7607 55.1706 73.9684 54.6898 74.3889 54.364C74.8093 54.0383 75.3181 53.8728 75.9151 53.8728C76.3926 53.8728 76.8079 53.9762 77.1453 54.183C77.4828 54.3899 77.6541 54.7363 77.6541 55.212C77.6541 55.6412 77.5191 55.9669 77.2596 56.1841C77 56.4012 76.6314 56.5098 76.1694 56.5098H74.7886V56.7063C74.7886 57.0476 74.8976 57.2906 75.1156 57.4354C75.3336 57.5801 75.588 57.6525 75.8839 57.6525C76.0916 57.6525 76.2992 57.6319 76.5068 57.5905C76.6937 57.5491 76.8598 57.5078 77.0052 57.4767L77.0675 57.4664L77.1194 57.4612L77.2596 57.5181C77.2959 57.5595 77.3115 57.6112 77.3115 57.6836V57.9369C77.3115 58.0352 77.2959 58.1179 77.2647 58.1799C77.2284 58.242 77.1713 58.2833 77.0779 58.3092C76.9377 58.3506 76.756 58.3868 76.5328 58.4385C76.3096 58.485 76.0812 58.5057 75.8528 58.5057C75.261 58.5057 74.7626 58.3661 74.3577 58.0817C73.9528 57.7973 73.7504 57.332 73.7504 56.6805L73.7607 55.8118ZM74.7938 55.8842H75.9047C76.185 55.8842 76.3771 55.8325 76.4913 55.7291C76.5951 55.6308 76.6522 55.4809 76.6522 55.2896C76.6522 55.0827 76.5795 54.9328 76.4342 54.8552C76.2888 54.7725 76.1019 54.7311 75.8839 54.7311C75.5465 54.7311 75.2817 54.819 75.0845 55C74.8924 55.1758 74.7938 55.4498 74.7938 55.8325V55.8842ZM78.7027 53.1024H78.2978C78.1888 53.1024 78.1109 53.0714 78.059 53.0093C78.0019 52.9473 77.9759 52.8594 77.9759 52.7766V52.5698C77.9759 52.4819 78.0019 52.4043 78.0538 52.3475C78.1057 52.2854 78.1836 52.2596 78.2926 52.2596H79.4191C79.5229 52.2596 79.6059 52.2854 79.6527 52.3475C79.7046 52.4095 79.7305 52.4871 79.7305 52.5698V58.1386C79.7305 58.2213 79.7046 58.2989 79.6527 58.3609C79.6008 58.423 79.5177 58.454 79.4191 58.454H79.0142C78.9051 58.454 78.8273 58.4281 78.7754 58.3609C78.7235 58.2989 78.6923 58.2213 78.6923 58.1386L78.7027 53.1024ZM81.2308 54.7777H80.8259C80.7117 54.7777 80.6338 54.7466 80.5819 54.6846C80.53 54.6174 80.504 54.5346 80.5092 54.4519V54.2451C80.5092 54.1572 80.5352 54.0848 80.5819 54.0228C80.6286 53.9607 80.7117 53.9348 80.8259 53.9348H81.9523C82.0562 53.9348 82.1392 53.9607 82.1911 54.0228C82.243 54.0848 82.269 54.1572 82.269 54.2451V58.1386C82.269 58.2213 82.243 58.2989 82.1911 58.3609C82.1392 58.423 82.0562 58.454 81.9523 58.454H81.5474C81.4332 58.454 81.3554 58.4281 81.3034 58.3609C81.2515 58.2989 81.2256 58.2213 81.2308 58.1386V54.7777ZM81.5474 53.1851C81.4332 53.1851 81.3554 53.1593 81.3034 53.0972C81.2515 53.0352 81.2256 52.9524 81.2308 52.8697V52.5698C81.2308 52.4819 81.2567 52.4043 81.3034 52.3475C81.3502 52.2854 81.4332 52.2596 81.5474 52.2596H81.9523C82.0562 52.2596 82.1392 52.2854 82.1911 52.3475C82.243 52.4095 82.269 52.4871 82.269 52.5698V52.8697C82.2742 52.9524 82.243 53.0352 82.1911 53.0972C82.1392 53.1541 82.0562 53.1851 81.9523 53.1851H81.5474ZM84.7244 59.1624C85.2954 59.1624 85.7159 59.0745 85.9807 58.8987C86.2506 58.7229 86.3856 58.3816 86.3856 57.88V57.7301L86.2091 57.8283C86.0222 57.9317 85.8197 58.0145 85.6173 58.0817C85.4044 58.1541 85.1501 58.1903 84.849 58.1903C84.4285 58.1903 84.0703 58.0507 83.7952 57.7766C83.5149 57.5026 83.3799 57.0941 83.3799 56.546V56.1892C83.3799 55.4654 83.6031 54.9069 84.0547 54.514C84.5064 54.1262 85.0462 53.9297 85.6796 53.9297H87.1071C87.2161 53.9297 87.2992 53.9555 87.3511 54.0176C87.4082 54.0796 87.4342 54.152 87.4342 54.2399V57.849C87.4342 58.5936 87.2161 59.1417 86.7853 59.4829C86.3492 59.8294 85.7574 60 85.0047 60H84.1482C84.0392 60 83.9561 59.969 83.9042 59.9069C83.8523 59.8449 83.8211 59.7621 83.8263 59.6794V59.4778C83.8263 59.3847 83.8523 59.3071 83.9042 59.2503C83.9613 59.1882 84.0392 59.1572 84.1482 59.1572H84.7244V59.1624ZM85.7938 54.7777C85.3629 54.7777 85.0255 54.9018 84.7763 55.1551C84.5271 55.4033 84.4077 55.7601 84.4077 56.2151V56.4891C84.4077 56.789 84.47 57.001 84.5998 57.1355C84.7244 57.2699 84.9061 57.3371 85.1397 57.3371C85.3421 57.3371 85.5394 57.3113 85.7107 57.2544C85.8872 57.1975 86.0585 57.1355 86.2194 57.0631L86.3856 56.9907V54.7777H85.7938ZM88.488 55.8118C88.488 55.1706 88.6956 54.6898 89.1161 54.364C89.5366 54.0383 90.0401 53.8728 90.6423 53.8728C91.1251 53.8728 91.5352 53.9762 91.8726 54.183C92.21 54.3899 92.3813 54.7363 92.3813 55.212C92.3813 55.6412 92.2515 55.9669 91.9868 56.1841C91.722 56.4012 91.3639 56.5098 90.8967 56.5098H89.521V56.7063C89.521 57.0476 89.6248 57.2906 89.8428 57.4354C90.0609 57.5801 90.3152 57.6525 90.6163 57.6525C90.8447 57.6525 91.0524 57.6319 91.2393 57.5905C91.4261 57.5491 91.5923 57.5078 91.7324 57.4767L91.7947 57.4664L91.8518 57.4612L91.9868 57.5181C92.0231 57.5595 92.0439 57.6112 92.0439 57.6836V57.9369C92.0439 58.0352 92.0283 58.1179 91.9972 58.1799C91.9608 58.242 91.9037 58.2833 91.8155 58.3092C91.6753 58.3506 91.4936 58.3868 91.2756 58.4385C91.0524 58.485 90.8188 58.5057 90.5904 58.5057C89.9986 58.5057 89.5002 58.3661 89.0953 58.0817C88.6904 57.7973 88.4932 57.332 88.4932 56.6805L88.488 55.8118ZM89.5262 55.8842H90.6371C90.9174 55.8842 91.1147 55.8325 91.2237 55.7291C91.3327 55.6308 91.3846 55.4809 91.3846 55.2896C91.3846 55.0827 91.3119 54.9328 91.1666 54.8552C91.0212 54.7725 90.8344 54.7311 90.6163 54.7311C90.2789 54.7311 90.0142 54.819 89.8221 55C89.6248 55.1758 89.5314 55.4498 89.5314 55.8325L89.5262 55.8842ZM93.3884 54.2503C93.3884 54.1624 93.4143 54.09 93.4663 54.0279C93.5182 53.9659 93.6012 53.94 93.705 53.94H94.11C94.2138 53.94 94.2968 53.9659 94.3436 54.0279C94.3955 54.09 94.4214 54.1624 94.4214 54.2503V54.7621L94.7121 54.4623C94.8731 54.2968 95.0547 54.1572 95.2624 54.0434C95.47 53.9297 95.7244 53.8728 96.0255 53.8728C96.4044 53.8728 96.7159 53.9814 96.9599 54.1882C97.2039 54.4002 97.3285 54.7828 97.3285 55.3257V58.1437C97.3285 58.2213 97.3025 58.304 97.2558 58.3661C97.2091 58.4281 97.126 58.4591 97.0118 58.4591H96.6069C96.4927 58.4591 96.4148 58.4333 96.3681 58.3661C96.3162 58.304 96.2902 58.2265 96.2954 58.1437V55.5222C96.2954 55.212 96.2331 54.9948 96.1085 54.8862C95.9892 54.7828 95.8334 54.726 95.6725 54.726C95.4804 54.726 95.2935 54.7983 95.1067 54.9483C94.9509 55.0724 94.7952 55.2068 94.6498 55.3464L94.4162 55.5791V58.1437C94.4162 58.2265 94.3903 58.304 94.3384 58.3661C94.2865 58.4281 94.2086 58.4591 94.1048 58.4591H93.6999C93.5908 58.4591 93.513 58.4333 93.4611 58.3661C93.4092 58.304 93.3832 58.2265 93.3832 58.1437L93.3884 54.2503ZM98.7456 54.7777H98.403C98.294 54.7777 98.211 54.7466 98.1642 54.6846C98.1175 54.6225 98.0916 54.545 98.0916 54.4519V54.2451C98.0916 54.1572 98.1175 54.0848 98.1642 54.0228C98.211 53.9607 98.294 53.9348 98.403 53.9348H98.7456V53.1748C98.7456 53.092 98.7716 53.0145 98.8235 52.9524C98.8754 52.8904 98.9585 52.8594 99.0623 52.8594H99.4672C99.5762 52.8594 99.6541 52.8904 99.706 52.9524C99.7579 53.0145 99.7839 53.0869 99.7839 53.1748V53.9348H100.687C100.796 53.9348 100.879 53.9607 100.931 54.0228C100.978 54.0848 101.004 54.1572 101.004 54.2451V54.4519C101.009 54.5346 100.983 54.6174 100.931 54.6846C100.879 54.7466 100.796 54.7777 100.687 54.7777H99.7839V56.6598C99.7839 57.0321 99.8513 57.2854 99.9811 57.4147C100.111 57.5491 100.344 57.6112 100.666 57.6112H100.817C100.921 57.6112 101.004 57.6422 101.056 57.7042C101.108 57.7663 101.134 57.8438 101.134 57.9421V58.1437C101.134 58.2316 101.108 58.304 101.056 58.3661C101.004 58.4281 100.921 58.4591 100.817 58.4591H100.376C99.8617 58.4591 99.462 58.3299 99.1765 58.0714C98.891 57.8128 98.7456 57.4043 98.7456 56.8459V54.7777ZM101.782 55.8118C101.782 55.1706 101.99 54.6898 102.416 54.364C102.836 54.0383 103.34 53.8728 103.942 53.8728C104.425 53.8728 104.835 53.9762 105.172 54.183C105.51 54.3899 105.681 54.7363 105.681 55.212C105.681 55.6412 105.546 55.9669 105.286 56.1841C105.027 56.4012 104.658 56.5098 104.196 56.5098H102.815V56.7063C102.815 57.0476 102.924 57.2906 103.143 57.4354C103.361 57.5801 103.615 57.6525 103.911 57.6525C104.139 57.6525 104.347 57.6319 104.534 57.5905C104.721 57.5491 104.887 57.5078 105.032 57.4767L105.094 57.4664L105.146 57.4612L105.286 57.5181C105.323 57.5595 105.344 57.6112 105.344 57.6836V57.9369C105.344 58.0352 105.328 58.1179 105.292 58.1799C105.261 58.242 105.198 58.2833 105.11 58.3092C104.97 58.3506 104.788 58.3868 104.565 58.4385C104.342 58.485 104.113 58.5057 103.885 58.5057C103.293 58.5057 102.795 58.3661 102.39 58.0817C101.985 57.7973 101.782 57.332 101.782 56.6805V55.8118ZM102.815 55.8842H103.932C104.212 55.8842 104.404 55.8325 104.513 55.7291C104.622 55.6308 104.674 55.4809 104.674 55.2896C104.674 55.0827 104.601 54.9328 104.456 54.8552C104.311 54.7725 104.124 54.7311 103.906 54.7311C103.568 54.7311 103.303 54.819 103.111 55C102.914 55.1758 102.815 55.4498 102.815 55.8325V55.8842ZM106.506 57.818C106.506 57.7301 106.527 57.668 106.574 57.6267C106.615 57.5853 106.678 57.5698 106.75 57.5698H106.792L106.839 57.5801C107.046 57.6112 107.228 57.637 107.394 57.6525C107.56 57.668 107.747 57.6732 107.944 57.6732C108.214 57.6732 108.448 57.637 108.65 57.5595C108.848 57.4819 108.951 57.3371 108.951 57.12C108.951 56.9648 108.879 56.8511 108.744 56.7735C108.604 56.696 108.453 56.6391 108.297 56.5977L107.607 56.4426C107.275 56.3599 107.005 56.2203 106.802 56.0341C106.595 55.8428 106.491 55.5688 106.491 55.2068C106.491 54.7518 106.683 54.4209 107.062 54.1986C107.446 53.9762 107.908 53.8676 108.453 53.8676C108.676 53.8676 108.863 53.878 109.008 53.8883C109.154 53.9038 109.325 53.9297 109.512 53.9659C109.6 53.9762 109.663 54.0072 109.704 54.0589C109.74 54.1055 109.761 54.1779 109.761 54.2658V54.5553C109.761 54.6381 109.74 54.7001 109.699 54.7466C109.652 54.7932 109.595 54.8139 109.528 54.8139L109.434 54.8035L109.31 54.7828C109.195 54.7673 109.06 54.7518 108.915 54.7363C108.77 54.7208 108.614 54.7156 108.453 54.7156C108.188 54.7156 107.97 54.7518 107.794 54.8242C107.622 54.8966 107.534 55.031 107.534 55.2172C107.534 55.3723 107.597 55.4757 107.711 55.5274C107.825 55.5791 107.96 55.6256 108.1 55.667L108.707 55.8066C109.055 55.8894 109.356 56.0238 109.616 56.2048C109.87 56.3909 110 56.696 110 57.1303C110 57.668 109.787 58.0403 109.356 58.2316C108.931 58.4281 108.453 58.5264 107.944 58.5264C107.742 58.5264 107.539 58.5212 107.337 58.5005C107.15 58.4798 106.963 58.454 106.771 58.4333C106.667 58.4178 106.595 58.3816 106.563 58.3299C106.522 58.2678 106.506 58.1954 106.506 58.1231V57.818ZM58.0731 46.2151C70.8848 46.2151 81.2723 35.8687 81.2723 23.1076C81.2723 10.3464 70.89 2.24178e-05 58.0731 2.24178e-05C47.1562 2.24178e-05 38.0042 7.50777 35.5333 17.6215C35.4139 18.1179 34.9622 18.4695 34.4483 18.4695H24.2685C23.6508 18.4695 23.1524 18.9659 23.1524 19.5812V26.5822C23.1524 27.1975 23.6508 27.6939 24.2685 27.6939H31.3285C31.9462 27.6939 32.4445 28.1903 32.4445 28.8056V33.0145C32.4445 33.3454 32.294 33.6608 32.0345 33.8728C29.5427 35.9049 26.4228 37.0166 23.1992 37.0166C15.4851 37.0166 9.23502 30.7859 9.23502 23.1076C9.23502 15.4292 15.4903 9.19857 23.1992 9.19857C25.3846 9.19857 27.4559 9.70012 29.2987 10.5946C29.823 10.848 30.4512 10.6619 30.747 10.1603L34.3341 4.15204C34.4899 3.88834 34.5314 3.57293 34.4483 3.2782C34.3653 2.98348 34.1628 2.73529 33.8877 2.59568C30.5861 0.8842 26.9212 -0.00514821 23.1992 2.24178e-05C10.3874 2.24178e-05 0 10.3464 0 23.1076C0 35.8687 10.3874 46.2151 23.1992 46.2151C29.7244 46.2151 35.6163 43.5315 39.8367 39.2141C40.0444 38.9969 40.3351 38.878 40.6362 38.878C40.9372 38.878 41.2279 39.0021 41.4356 39.2141C45.6508 43.5315 51.5479 46.2151 58.0731 46.2151ZM58.0731 37.0166C50.3643 37.0166 44.109 30.7859 44.109 23.1076C44.109 15.4292 50.3591 9.19857 58.0731 9.19857C65.7872 9.19857 72.0321 15.424 72.0321 23.1076C72.0321 30.7911 65.782 37.0166 58.0731 37.0166Z" fill="#313131"/>
<path d="M96 18.574C93.9573 7.99262 84.7602 0 73.7084 0C71.1169 0 68.5458 0.447751 66.1017 1.32267C70.4411 2.89237 74.2114 5.75901 76.9096 9.54173C82.9157 11.0034 87.377 16.469 87.377 23C87.377 30.6478 81.2592 36.8443 73.7084 36.8443C66.1576 36.8443 60.0397 30.6426 60.0397 23C60.0397 18.2085 62.4431 13.9832 66.0966 11.4974C63.8506 9.9689 61.2033 9.15059 58.495 9.15574C57.4177 9.15574 56.3405 9.2844 55.2937 9.53659C52.494 13.4531 50.9899 18.1622 51.0001 23C51.0001 35.7017 61.1677 46 73.7084 46C84.7551 46 93.9573 38.0125 95.9949 27.426L96 18.574Z" fill="#313131"/>
<path d="M97.4735 35.7834C96.8537 35.7834 96.3495 35.2861 96.3442 34.6748V34.6696V1.11386C96.3442 0.497352 95.84 0 95.2149 0H88.1293C87.5042 0 87 0.497352 87 1.11386V43.8861C87 44.5026 87.5042 45 88.1293 45H111.876C112.501 45 113 44.5026 113 43.8861V36.8973C113 36.2808 112.496 35.7834 111.876 35.7834H97.4735Z" fill="#313131"/>
</svg>
