<svg width="29" height="30" viewBox="0 0 29 30" fill="none" xmlns="http://www.w3.org/2000/svg">
<path d="M12.8481 16.0001L8.84814 10.6667H0.848145V29.3334H27.5148L19.5148 18.6667L12.8481 16.0001ZM14.8881 19.6934L6.18148 22.6001L3.51481 21.7067V19.1867L6.18148 20.0801L11.4481 18.3201L14.8881 19.6934ZM7.51481 13.3334L9.60814 16.1201L6.18148 17.2667L3.51481 16.3734V13.3334H7.51481ZM3.51481 26.6667V24.5201L6.18148 25.4134L18.2215 21.4001L22.1815 26.6667H3.51481Z" fill="#F2F2F2"/>
<path d="M20.8481 8V1.33333L14.1815 0L10.1815 2.66667V8L14.1815 10.6667L20.8481 8ZM12.8481 4.09333L14.7415 2.82667L18.1815 3.52V6.2L14.4881 7.68L12.8481 6.57333V4.09333Z" fill="#F2F2F2"/>
<path d="M22.8481 9.33325L19.5148 11.9999V15.9999L22.8481 18.6666L28.8481 15.9999V10.6666L22.8481 9.33325ZM26.1815 14.2666L23.2481 15.5733L22.1815 14.7199V13.2799L23.5148 12.2133L26.1815 12.7999V14.2666Z" fill="#F2F2F2"/>
</svg>
