<svg width="45" height="40" viewBox="0 0 45 40" fill="none" xmlns="http://www.w3.org/2000/svg">
<path d="M24.7227 14.6111C23.3271 12.6111 22.6012 7.99899 24.7227 7.5H6.22222C5.04889 7.5 4.07111 8.34 3.69778 9.52L0 21.5V37.5C0 38.6 0.8 39.5 1.77778 39.5H3.55556C4.53333 39.5 5.33333 38.6 5.33333 37.5V35.5H26.6667V37.5C26.6667 38.6 27.4667 39.5 28.4444 39.5H30.2222C31.2 39.5 32 38.6 32 37.5V21.5C32 21.5 28.6293 21.5 27.3146 19.5C26 17.5 24.7227 14.6111 24.7227 14.6111ZM6.84445 11.5H24.7227L25 14.5L26.9867 17.5H4.99556L6.84445 11.5ZM28.4444 31.5H3.55556V21.5H28.4444V31.5ZM5.33333 26.5C5.33333 24.84 6.52444 23.5 8 23.5C9.47556 23.5 10.6667 24.84 10.6667 26.5C10.6667 28.16 9.47556 29.5 8 29.5C6.52444 29.5 5.33333 28.16 5.33333 26.5ZM21.3333 26.5C21.3333 24.84 22.5244 23.5 24 23.5C25.4756 23.5 26.6667 24.84 26.6667 26.5C26.6667 28.16 25.4756 29.5 24 29.5C22.5244 29.5 21.3333 28.16 21.3333 26.5Z" fill="#F2F2F2"/>
<path d="M32.99 2C27.47 2 23 6.48 23 12C23 17.52 27.47 22 32.99 22C38.52 22 43 17.52 43 12C43 6.48 38.52 2 32.99 2ZM33 20C28.58 20 25 16.42 25 12C25 7.58 28.58 4 33 4C37.42 4 41 7.58 41 12C41 16.42 37.42 20 33 20ZM33.5 7H32V13L37.25 16.15L38 14.92L33.5 12.25V7Z" fill="#F2F2F2"/>
</svg>
