<svg width="32" height="32" viewBox="0 0 32 32" fill="none" xmlns="http://www.w3.org/2000/svg">
<path d="M24 0C19.584 0 16 3.77263 16 8.42105C16 13.0695 19.584 16.8421 24 16.8421C28.416 16.8421 32 13.0695 32 8.42105C32 3.77263 28.416 0 24 0ZM24.8 10.1053H23.2V3.36842H24.8V10.1053ZM24.8 11.7895V13.4737H23.2V11.7895H24.8ZM4.8 21.0526C4.8 19.6547 5.872 18.5263 7.2 18.5263C8.528 18.5263 9.6 19.6547 9.6 21.0526C9.6 22.4505 8.528 23.5789 7.2 23.5789C5.872 23.5789 4.8 22.4505 4.8 21.0526ZM25.6 20.0926C26.64 19.9411 27.744 19.6211 28.8 19.0821V30.3158C28.8 31.2421 28.08 32 27.2 32H25.6C24.72 32 24 31.2421 24 30.3158V28.6316H4.8V30.3158C4.8 31.2421 4.08 32 3.2 32H1.6C0.72 32 0 31.2421 0 30.3158V16.8421L3.328 6.75368C3.664 5.76 4.544 5.05263 5.6 5.05263H13.264C12.96 6.11368 12.8 7.25895 12.8 8.42105H6.16L4.496 13.4737H13.872C14.448 14.7368 15.216 15.8821 16.16 16.8421H3.2V25.2632H25.6V20.0926ZM23.856 20.2105C22.432 20.1937 21.072 19.8905 19.808 19.3516C19.44 19.8063 19.2 20.3958 19.2 21.0526C19.2 22.4505 20.272 23.5789 21.6 23.5789C22.928 23.5789 24 22.4505 24 21.0526C24 20.7495 23.952 20.48 23.856 20.2105Z" fill="#F2F2F2"/>
</svg>
