<svg width="46" height="38" viewBox="0 0 46 38" fill="none" xmlns="http://www.w3.org/2000/svg">
<path d="M25.5709 13.1111C24.1752 11.1111 23.0505 6.49899 25.1721 6H7.07037C5.89703 6 4.91926 6.84 4.54592 8.02L0.848145 20V36C0.848145 37.1 1.64814 38 2.62592 38H4.4037C5.38148 38 6.18148 37.1 6.18148 36V34H27.5148V36C27.5148 37.1 28.3148 38 29.2926 38H31.0704C32.0481 38 32.8481 37.1 32.8481 36V20L28.1628 18L25.5709 13.1111ZM7.69259 10H25.5709L27.8348 16H5.8437L7.69259 10ZM29.2926 30H4.4037V20H29.2926V30ZM6.18148 25C6.18148 23.34 7.37259 22 8.84814 22C10.3237 22 11.5148 23.34 11.5148 25C11.5148 26.66 10.3237 28 8.84814 28C7.37259 28 6.18148 26.66 6.18148 25ZM22.1815 25C22.1815 23.34 23.3726 22 24.8481 22C26.3237 22 27.5148 23.34 27.5148 25C27.5148 26.66 26.3237 28 24.8481 28C23.3726 28 22.1815 26.66 22.1815 25Z" fill="#F2F2F2"/>
<path d="M34.8481 0L23.8481 4V10C23.8481 15.55 28.5415 20.74 34.8481 22C41.1548 20.74 45.8481 15.55 45.8481 10V4L34.8481 0ZM43.4037 10C43.4037 14.52 39.7615 18.69 34.8481 19.93C30.6539 18.7126 27.2677 14.5503 26.2926 10V5.3L34.8481 2.19L43.4037 5.3V10ZM29.2381 10.59L27.5148 12L32.4037 16L42.1815 8L40.4581 6.58L32.4037 13.17L29.2381 10.59Z" fill="#F2F2F2"/>
</svg>
