<svg width="43" height="42" viewBox="0 0 43 42" fill="none" xmlns="http://www.w3.org/2000/svg">
<path d="M24.7227 16.6111C23.3271 14.6111 22.2024 9.99899 24.324 9.5H6.22222C5.04889 9.5 4.07111 10.34 3.69778 11.52L0 23.5V39.5C0 40.6 0.8 41.5 1.77778 41.5H3.55556C4.53333 41.5 5.33333 40.6 5.33333 39.5V37.5H26.6667V39.5C26.6667 40.6 27.4667 41.5 28.4444 41.5H30.2222C31.2 41.5 32 40.6 32 39.5L32 20.5L27.3146 21L24.7227 16.6111ZM6.84445 13.5H24.7227L25 16.5L26.9867 19.5H4.99556L6.84445 13.5ZM28.4444 33.5H3.55556V23.5H28.4444V33.5ZM5.33333 28.5C5.33333 26.84 6.52444 25.5 8 25.5C9.47556 25.5 10.6667 26.84 10.6667 28.5C10.6667 30.16 9.47556 31.5 8 31.5C6.52444 31.5 5.33333 30.16 5.33333 28.5ZM21.3333 28.5C21.3333 26.84 22.5244 25.5 24 25.5C25.4756 25.5 26.6667 26.84 26.6667 28.5C26.6667 30.16 25.4756 31.5 24 31.5C22.5244 31.5 21.3333 30.16 21.3333 28.5Z" fill="#F2F2F2"/>
<g clip-path="url(#clip0_298_5630)">
<path d="M31.2781 13.1599C32.6381 13.4399 33.4481 14.3199 33.4481 15.5699C33.4481 16.9099 32.3381 17.9899 30.9581 17.9899C28.9081 17.9899 27.2481 16.3299 27.2481 14.2799C27.2481 13.2099 27.3981 12.1599 27.7081 11.1599C28.4981 12.2299 29.9081 12.8799 31.2781 13.1599ZM29.3481 0.669922C29.3481 0.669922 28.6081 3.31992 28.6081 5.46992C28.6081 7.52992 29.9581 9.19992 32.0181 9.19992C34.0881 9.19992 35.6481 7.52992 35.6481 5.46992L35.6181 5.10992C37.6381 7.50992 38.8481 10.6199 38.8481 13.9999C38.8481 18.4199 35.2681 21.9999 30.8481 21.9999C26.4281 21.9999 22.8481 18.4199 22.8481 13.9999C22.8481 8.60992 25.4381 3.79992 29.3481 0.669922ZM30.8481 19.9999C34.1581 19.9999 36.8481 17.3099 36.8481 13.9999C36.8481 12.4699 36.5481 10.9599 35.9881 9.56992C34.9781 10.5799 33.5781 11.1999 32.0181 11.1999C29.3581 11.1999 27.2681 9.36992 26.7381 6.76992C25.5081 8.96992 24.8481 11.4399 24.8481 13.9999C24.8481 17.3099 27.5381 19.9999 30.8481 19.9999Z" fill="#F2F2F2"/>
</g>
<defs>
<clipPath id="clip0_298_5630">
<rect width="24" height="24" fill="white" transform="matrix(-1 0 0 1 42.8481 0)"/>
</clipPath>
</defs>
</svg>
