<svg width="30" height="40" viewBox="0 0 30 40" fill="none" xmlns="http://www.w3.org/2000/svg">
<path d="M26.5333 15.0167C26.2 14.0333 25.2667 13.3333 24.1667 13.3333H5.83333C4.73333 13.3333 3.81667 14.0333 3.46667 15.0167L0 25V38.3333C0 39.25 0.75 40 1.66667 40H3.33333C4.25 40 5 39.25 5 38.3333V36.6667H25V38.3333C25 39.25 25.75 40 26.6667 40H28.3333C29.25 40 30 39.25 30 38.3333V25L26.5333 15.0167ZM6.41667 16.6667H23.5667L25.3 21.6667H4.68333L6.41667 16.6667ZM26.6667 33.3333H3.33333V25H26.6667V33.3333ZM5 29.1667C5 27.7833 6.11667 26.6667 7.5 26.6667C8.88333 26.6667 10 27.7833 10 29.1667C10 30.55 8.88333 31.6667 7.5 31.6667C6.11667 31.6667 5 30.55 5 29.1667ZM20 29.1667C20 27.7833 21.1167 26.6667 22.5 26.6667C23.8833 26.6667 25 27.7833 25 29.1667C25 30.55 23.8833 31.6667 22.5 31.6667C21.1167 31.6667 20 30.55 20 29.1667ZM10.6833 8.33333L8.33333 10.6833L3.33333 5.68333L5.68333 3.33333L10.6833 8.33333ZM21.6667 10.6833L19.3167 8.33333L24.3167 3.33333L26.6667 5.68333L21.6667 10.6833ZM16.6667 8.33333H13.3333V0H16.6667V8.33333Z" fill="#F2F2F2"/>
</svg>
