<svg width="88" height="88" viewBox="0 0 88 88" fill="none" xmlns="http://www.w3.org/2000/svg">
<path d="M48.0333 63.9832L60.8666 51.1499C61.5389 50.4777 62.0278 49.7291 62.3333 48.9041C62.6389 48.0791 62.7916 47.2082 62.7916 46.2916C62.7916 44.336 62.1041 42.6707 60.7291 41.2957C59.3541 39.9207 57.6889 39.2332 55.7333 39.2332C54.5111 39.2332 53.2889 39.6305 52.0666 40.4249C50.8444 41.2194 49.5 42.5027 48.0333 44.2749C46.5666 42.5027 45.2222 41.2194 44 40.4249C42.7778 39.6305 41.5555 39.2332 40.3333 39.2332C38.3778 39.2332 36.7125 39.9207 35.3375 41.2957C33.9625 42.6707 33.275 44.336 33.275 46.2916C33.275 47.2082 33.4278 48.0791 33.7333 48.9041C34.0389 49.7291 34.5278 50.4777 35.2 51.1499L48.0333 63.9832ZM51.2416 79.1082C50.1416 80.2082 48.8125 80.7582 47.2541 80.7582C45.6958 80.7582 44.3666 80.2082 43.2666 79.1082L8.89165 44.7332C8.28054 44.1221 7.86804 43.4805 7.65415 42.8083C7.44026 42.136 7.33331 41.4333 7.33331 40.6999V12.8333C7.33331 11.2444 7.85276 9.93047 8.89165 8.89159C9.93054 7.8527 11.2444 7.33325 12.8333 7.33325H40.7C41.4333 7.33325 42.1666 7.4402 42.9 7.65409C43.6333 7.86797 44.3055 8.28047 44.9166 8.89159L79.1083 43.0832C80.2694 44.2444 80.85 45.6041 80.85 47.1624C80.85 48.7207 80.2694 50.0805 79.1083 51.2416L51.2416 79.1082ZM47.4833 75.3499L75.35 47.4832L40.7 12.8333H12.8333V40.6999L47.4833 75.3499ZM22.4583 27.1333C23.7416 27.1333 24.8569 26.6596 25.8041 25.7124C26.7514 24.7652 27.225 23.6499 27.225 22.3666C27.225 21.0833 26.7514 19.968 25.8041 19.0208C24.8569 18.0735 23.7416 17.5999 22.4583 17.5999C21.175 17.5999 20.0597 18.0735 19.1125 19.0208C18.1653 19.968 17.6916 21.0833 17.6916 22.3666C17.6916 23.6499 18.1653 24.7652 19.1125 25.7124C20.0597 26.6596 21.175 27.1333 22.4583 27.1333Z" fill="url(#paint0_linear_298_5658)"/>
<defs>
<linearGradient id="paint0_linear_298_5658" x1="74.1723" y1="9.15118" x2="61.9916" y2="87.0084" gradientUnits="userSpaceOnUse">
<stop stop-color="#FF8C22"/>
<stop offset="1" stop-color="#E86216"/>
</linearGradient>
</defs>
</svg>
