<svg width="26" height="26" viewBox="0 0 26 26" fill="none" xmlns="http://www.w3.org/2000/svg">
<path d="M9.4 25H16.6C22.6 25 25 22.6 25 16.6V9.4C25 3.4 22.6 1 16.6 1H9.4C3.4 1 1 3.4 1 9.4V16.6C1 22.6 3.4 25 9.4 25Z" stroke="#A4A4A4" stroke-width="2" stroke-linecap="round" stroke-linejoin="round"/>
<path d="M13 17.1999C15.3196 17.1999 17.2 15.3195 17.2 12.9999C17.2 10.6803 15.3196 8.79993 13 8.79993C10.6804 8.79993 8.80002 10.6803 8.80002 12.9999C8.80002 15.3195 10.6804 17.1999 13 17.1999Z" stroke="#A4A4A4" stroke-width="2" stroke-linecap="round" stroke-linejoin="round"/>
<path d="M19.7632 7H19.7771H19.7632Z" fill="#A4A4A4"/>
<path d="M19.7632 7H19.7771" stroke="#A4A4A4" stroke-width="2" stroke-linecap="round" stroke-linejoin="round"/>
</svg>
