<svg width="199" height="60" viewBox="0 0 199 60" fill="none" xmlns="http://www.w3.org/2000/svg">
<path d="M37.5257 22.7267V37.8016C37.5257 38.046 37.4271 38.2803 37.2516 38.4531C37.0761 38.6259 36.8381 38.723 36.5899 38.723H31.7564C31.5082 38.7229 31.2703 38.6258 31.0948 38.453C30.9193 38.2802 30.8207 38.046 30.8206 37.8016V13.2815C30.8206 13.0371 30.9192 12.8027 31.0947 12.63C31.2702 12.4572 31.5082 12.3601 31.7564 12.3601H36.2292C36.4774 12.3601 36.7155 12.4572 36.891 12.63C37.0665 12.8027 37.1651 13.0371 37.1651 13.2815V16.7345C37.1651 16.7345 38.764 11.8088 43.5092 11.8088C43.5092 11.8088 48.2028 11.2502 50.1112 16.3791C50.1112 16.3791 51.7101 11.8088 56.5584 11.8088C56.5584 11.8088 63.7686 11.3867 63.7686 18.7321L63.8235 22.7774V37.8524C63.8235 38.0968 63.7249 38.3311 63.5494 38.5039C63.3739 38.6767 63.1359 38.7738 62.8877 38.7738H58.0538C57.8056 38.7737 57.5676 38.6766 57.3922 38.5038C57.2167 38.331 57.1181 38.0967 57.118 37.8524L57.0738 21.4064C57.2112 17.6823 54.1512 17.9533 54.1512 17.9533C50.3002 18.0211 50.6707 22.7774 50.6707 22.7774V37.8524C50.6707 38.0968 50.5721 38.3311 50.3966 38.5039C50.2211 38.6767 49.9831 38.7738 49.7349 38.7738H44.9014C44.6532 38.7737 44.4152 38.6766 44.2398 38.5038C44.0643 38.331 43.9657 38.0967 43.9655 37.8524V21.7785C43.9655 21.7785 44.2482 17.9192 40.8094 17.9192C40.8098 17.9192 37.4056 17.4792 37.5257 22.7267ZM162.12 22.6816V37.7561C162.12 38.0005 162.021 38.2347 161.846 38.4075C161.67 38.5803 161.432 38.6774 161.184 38.6775L156.157 38.7734C155.909 38.7733 155.671 38.6762 155.495 38.5034C155.32 38.3306 155.221 38.0963 155.221 37.852V21.7785C155.221 21.7785 155.504 17.9192 152.065 17.9192C152.065 17.9192 148.781 17.7599 148.781 23.8109V37.8012C148.781 38.0456 148.683 38.2798 148.507 38.4526C148.332 38.6254 148.094 38.7225 147.845 38.7226H143.012C142.763 38.7225 142.525 38.6254 142.35 38.4526C142.174 38.2798 142.076 38.0456 142.076 37.8012V13.2815C142.076 13.0371 142.174 12.8028 142.35 12.6301C142.525 12.4573 142.763 12.3602 143.012 12.3601H147.484C147.733 12.3601 147.971 12.4572 148.146 12.63C148.322 12.8027 148.42 13.0371 148.42 13.2815V16.7345C148.42 16.7345 150.019 11.8088 154.764 11.8088C154.764 11.8088 159.847 11.0495 161.559 16.2836C161.56 16.2832 162.12 17.363 162.12 22.6816ZM127.22 11.7073C121.039 11.7073 116.028 16.8361 116.028 25.4688C116.028 33.0693 119.896 39.2304 127.22 39.2304C134.131 39.2304 138.412 33.0693 138.412 25.4688C138.412 16.9884 133.402 11.7073 127.22 11.7073ZM131.121 25.7735C131.121 29.0235 130.709 30.75 130.709 30.75C130.122 34.1856 127.588 34.1905 127.215 34.1722C126.812 34.1881 124.257 34.1523 123.729 30.75C123.729 30.75 123.316 29.0235 123.316 25.7735V25.232C123.316 21.982 123.729 20.2555 123.729 20.2555C124.257 16.8532 126.812 16.8174 127.215 16.8329C127.588 16.8146 130.122 16.819 130.709 20.2555C130.709 20.2555 131.121 21.982 131.121 25.232V25.7735ZM113.222 16.7004V13.1823C113.222 12.938 113.123 12.7037 112.948 12.5309C112.772 12.3582 112.534 12.2611 112.286 12.261H96.3094C96.0612 12.261 95.8232 12.358 95.6477 12.5308C95.4722 12.7036 95.3736 12.938 95.3736 13.1823V16.6732C95.3737 16.9175 95.4724 17.1518 95.6478 17.3246C95.8233 17.4974 96.0613 17.5945 96.3094 17.5946H104.643L94.779 31.6832C94.779 31.6832 94.3903 32.2543 94.4031 32.8852V37.1707C94.4031 37.1707 94.3388 38.6401 96.0313 37.7874C96.0313 37.7874 99.0377 35.9991 104.079 35.9991C104.079 35.9991 109.057 35.9382 112.376 37.9414C112.376 37.9414 113.754 38.5581 113.754 37.202V33.4719C113.754 33.4719 113.879 32.4847 112.564 31.8684C112.564 31.8684 108.744 29.8031 103.734 30.1419L113.222 16.7004ZM27.09 34.338L25.5769 32.0703C25.0954 31.2237 25.1301 30.2755 25.1301 30.2755V19.8151C25.3364 10.7761 15.1582 11.5549 15.1582 11.5549C6.11013 11.5549 4.77364 18.4875 4.77364 18.4875C4.3965 19.8813 5.49325 19.915 5.49325 19.915L9.91453 20.3566C9.91453 20.3566 10.6684 20.5264 10.9428 19.6429C10.9428 19.6429 11.525 16.6184 14.781 16.6184C18.3238 16.6184 18.2871 19.612 18.2871 19.612V22.1181C11.2147 22.3509 7.93723 24.2838 7.93723 24.2838C3.57042 26.7213 3.84523 31.5625 3.84523 31.5625C3.84523 39.4502 11.4788 39.1114 11.4788 39.1114C16.3614 39.1114 19.2497 35.5908 19.2497 35.5908C20.1092 37.0809 21.6912 38.502 21.6912 38.502C22.4827 39.347 23.3075 38.6377 23.3075 38.6377L26.8837 35.625C27.6743 35.0489 27.09 34.338 27.09 34.338ZM13.8617 34.2405C11.565 34.2405 10.7113 31.9935 11.0926 29.7852C11.4742 27.5768 13.4565 25.8413 18.2875 25.8921V27.2348C18.4587 33.1001 15.7734 34.2405 13.8617 34.2405ZM91.3216 34.338L89.809 32.0703C89.3274 31.2237 89.3617 30.2755 89.3617 30.2755V19.8151C89.568 10.7761 79.3898 11.5549 79.3898 11.5549C70.3418 11.5549 69.0053 18.4875 69.0053 18.4875C68.6281 19.8813 69.7249 19.915 69.7249 19.915L74.1461 20.3566C74.1461 20.3566 74.9 20.5264 75.1744 19.6429C75.1744 19.6429 75.7566 16.6184 79.0126 16.6184C82.5554 16.6184 82.5187 19.612 82.5187 19.612V22.1181C75.4467 22.3509 72.1689 24.2838 72.1689 24.2838C67.802 26.7213 68.0769 31.5625 68.0769 31.5625C68.0769 39.4502 75.7104 39.1114 75.7104 39.1114C80.593 39.1114 83.4814 35.5908 83.4814 35.5908C84.3413 37.0809 85.9225 38.502 85.9225 38.502C86.7139 39.347 87.5391 38.6377 87.5391 38.6377L91.1149 35.625C91.9059 35.0489 91.3216 34.338 91.3216 34.338ZM78.0933 34.2405C75.7966 34.2405 74.9429 31.9935 75.3242 29.7852C75.7059 27.5768 77.6881 25.8413 82.5187 25.8921V27.2348C82.6904 33.1001 80.0054 34.2405 78.0933 34.2405Z" fill="#313131"/>
<path d="M103.398 54.6906C103.398 54.6906 102.994 55.3945 103.49 55.5518C103.49 55.5518 104.05 55.771 104.749 55.1212C104.749 55.1212 109.843 50.6603 109.966 42.5387C109.966 42.5387 110.004 41.5243 109.597 41.2469C109.597 41.2469 108.001 39.8316 102.262 40.2622C102.262 40.2622 97.2595 40.6007 94.5283 43.0312C94.5283 43.0312 94.2828 43.2463 94.2828 43.5229C94.2828 43.5229 94.2239 44.1203 95.7252 43.8615C95.7252 43.8615 100.728 43.1534 103.705 43.5229C103.705 43.5229 105.24 43.7075 105.669 44.231C105.669 44.231 106.375 44.8156 106.007 46.7531C106.007 46.7539 104.993 51.6759 103.398 54.6906Z" fill="#313131"/>
<path d="M102.389 46.8986C102.389 46.8986 103.136 47.8688 101.931 48.7057C101.931 48.7057 89.0521 59.0311 67.4282 59.0311C67.4282 59.0311 45.1691 60.1318 26.5829 43.2048C26.5829 43.2048 25.9313 42.6314 26.3357 42.0984C26.3357 42.0984 26.6974 41.6079 27.6336 42.1413C27.6336 42.1413 45.1177 53.0617 68.0802 53.0617C68.0802 53.0617 84.0407 53.681 100.413 46.6625C100.413 46.6625 101.718 45.985 102.389 46.8986Z" fill="#313131"/>
</svg>
