<svg width="180" height="40" viewBox="0 0 180 40" fill="none" xmlns="http://www.w3.org/2000/svg">
<path d="M177.705 0.630859H173.641C172.485 0.630859 171.784 1.33159 171.784 2.4878V14.5054C171.784 18.92 169.402 21.4076 166.091 21.4076C162.604 21.4076 160.642 19.1477 160.642 14.7857V2.4878C160.642 1.33159 159.942 0.630859 158.785 0.630859H154.721C153.565 0.630859 152.864 1.33159 152.864 2.4878V15.3638C152.864 23.5448 157.104 28.1871 163.48 28.1871C167.317 28.1871 170.26 26.9083 172.362 24.2981L172.713 25.9273C172.94 26.9784 173.641 27.5565 174.745 27.5565H177.705C178.861 27.5565 179.562 26.8558 179.562 25.6996V2.49131C179.562 1.3316 178.879 0.630859 177.705 0.630859Z" fill="#313131"/>
<path d="M149.399 20.4791H142.094C139.536 20.4791 138.205 19.1477 138.205 16.59V2.4878C138.205 1.33159 137.504 0.630859 136.348 0.630859H132.178C131.022 0.630859 130.321 1.33159 130.321 2.4878V17.5711C130.321 23.7725 134.088 27.5565 140.307 27.5565H149.416C150.572 27.5565 151.273 26.8558 151.273 25.6996V22.336C151.256 21.1798 150.555 20.4791 149.399 20.4791Z" fill="#313131"/>
<path d="M31.1609 2.43525C31.0383 1.20897 30.4076 0.630859 29.2514 0.630859H26.1682C25.1872 0.630859 24.4865 1.03378 23.9609 1.9097L16.4806 14.5579L9.52582 1.9097C9.07035 1.03378 8.29954 0.630859 7.31852 0.630859H4.00756C2.85135 0.630859 2.22069 1.22648 2.09806 2.43525L0.188567 25.6435C0.0659394 26.9223 0.714116 27.553 1.92288 27.553H5.63676C6.79297 27.553 7.4937 26.9749 7.54625 25.7486L8.3521 12.75L12.8193 20.8084C13.2747 21.6844 14.0455 22.0873 15.0266 22.0873H17.5842C18.5653 22.0873 19.266 21.7369 19.7915 20.8084L24.8368 12.1719L25.4149 25.7486C25.4675 26.9749 26.1157 27.553 27.2719 27.553H31.2836C32.5098 27.553 33.1405 26.9223 33.0179 25.6435L31.1609 2.43525Z" fill="#313131"/>
<path d="M124.926 0.630655H121.737C120.634 0.630655 119.881 1.20876 119.705 2.31241L119.53 3.64381C117.726 1.73431 115.116 0 110.754 0C103.448 0 98.0527 5.746 98.0527 14.0322C98.0527 22.1607 103.098 28.1869 110.298 28.1869C114.818 28.1869 117.778 26.2775 119.583 24.2979L119.881 25.9271C120.056 26.9782 120.756 27.5563 121.86 27.5563H124.943C126.1 27.5563 126.8 26.8556 126.8 25.6994V2.4911C126.783 1.33139 126.082 0.630655 124.926 0.630655ZM112.439 21.4039C108.322 21.4039 105.712 18.5659 105.712 14.1513C105.712 9.68412 108.445 6.77608 112.439 6.77608C116.556 6.77608 119.166 9.61404 119.166 14.0287C119.18 18.5168 116.447 21.4039 112.439 21.4039Z" fill="#313131"/>
<path d="M93.4142 0.630655H90.2258C89.1222 0.630655 88.3689 1.20876 88.1937 2.31241L88.0185 3.6438C86.2141 1.73431 83.6039 0 79.2594 0C71.9542 0 66.5586 5.39563 66.5586 13.6993C66.5586 21.5825 71.5513 27.1534 78.7513 27.1534C83.2185 27.1534 85.8813 25.2964 87.6857 23.3169V24.6483C87.6857 29.2906 85.0754 32.2512 79.5572 32.2512C77.2448 32.2512 75.1426 31.7957 73.0053 30.8673C71.9017 30.3417 71.0258 30.5694 70.5177 31.6731L69.2389 34.2308C68.7133 35.2819 68.8885 36.1403 69.8696 36.7184C72.9528 38.4527 76.7192 39.1534 80.363 39.1534C89.4725 39.1534 95.2711 33.4074 95.2711 25.4015V2.4911C95.2711 1.33139 94.5704 0.630655 93.4142 0.630655ZM80.9411 20.5315C76.9294 20.5315 74.2141 17.8687 74.2141 13.7343C74.2141 9.38981 77.0521 6.77958 80.9411 6.77958C84.9528 6.77958 87.6681 9.16207 87.6681 13.6292C87.6681 17.6409 84.8302 20.5315 80.9411 20.5315Z" fill="#313131"/>
<path d="M61.9195 0.630655H58.7312C57.6275 0.630655 56.8743 1.20876 56.6991 2.31241L56.5239 3.64381C54.7195 1.73431 52.1093 0 47.7647 0C40.4596 0 35.064 5.746 35.064 14.0322C35.064 22.1607 40.1092 28.1869 47.3093 28.1869C51.829 28.1869 54.7896 26.2775 56.594 24.2979L56.8918 25.9271C57.067 26.9782 57.7677 27.5563 58.8713 27.5563H61.9546C63.1108 27.5563 63.8115 26.8556 63.8115 25.6994V2.4911C63.7765 1.33139 63.0757 0.630655 61.9195 0.630655ZM49.4465 21.4039C45.3297 21.4039 42.7195 18.5659 42.7195 14.1513C42.7195 9.68412 45.4523 6.77608 49.4465 6.77608C53.5633 6.77608 56.1735 9.61404 56.1735 14.0287C56.1735 18.5168 53.4407 21.4039 49.4465 21.4039Z" fill="#313131"/>
</svg>
