<svg width="32" height="32" viewBox="0 0 32 32" fill="none" xmlns="http://www.w3.org/2000/svg">
<path d="M15.0333 28V25.2C13.7666 24.9778 12.7277 24.4944 11.9166 23.75C11.1055 23.0056 10.5222 22.0667 10.1666 20.9333L12.0333 20.1667C12.4111 21.2333 12.9555 22.0278 13.6666 22.55C14.3777 23.0722 15.2333 23.3333 16.2333 23.3333C17.3 23.3333 18.1777 23.0667 18.8666 22.5333C19.5555 22 19.9 21.2667 19.9 20.3333C19.9 19.3556 19.5944 18.6 18.9833 18.0667C18.3722 17.5333 17.2222 16.9889 15.5333 16.4333C13.9333 15.9222 12.7388 15.2444 11.95 14.4C11.1611 13.5556 10.7666 12.5 10.7666 11.2333C10.7666 10.0111 11.1611 8.98889 11.95 8.16667C12.7388 7.34444 13.7666 6.87778 15.0333 6.76667V4H17.0333V6.76667C18.0333 6.87778 18.8944 7.20556 19.6166 7.75C20.3388 8.29444 20.8888 8.98889 21.2666 9.83333L19.4 10.6333C19.0888 9.92222 18.6722 9.40556 18.15 9.08333C17.6277 8.76111 16.9444 8.6 16.1 8.6C15.0777 8.6 14.2666 8.83333 13.6666 9.3C13.0666 9.76667 12.7666 10.4 12.7666 11.2C12.7666 12.0444 13.1 12.7278 13.7666 13.25C14.4333 13.7722 15.6666 14.3111 17.4666 14.8667C18.9777 15.3333 20.0944 16.0056 20.8166 16.8833C21.5388 17.7611 21.9 18.8667 21.9 20.2C21.9 21.6 21.4888 22.7278 20.6666 23.5833C19.8444 24.4389 18.6333 24.9889 17.0333 25.2333V28H15.0333Z" fill="#32D957"/>
</svg>
