<svg width="101" height="62" viewBox="0 0 101 62" fill="none" xmlns="http://www.w3.org/2000/svg">
<path d="M53.9892 0.169282C53.6615 0.218577 53.3459 1.42511 52.7141 2.05513C52.2494 2.5078 51.6729 2.48135 51.3651 3.04163C51.2479 3.25024 51.2851 3.60853 51.1529 3.95239C50.8938 4.63892 49.9842 4.69964 49.9842 5.44869C49.9818 6.25725 50.7429 6.41175 51.403 6.98526C51.9176 7.44575 51.9669 7.76436 52.5927 7.9886C53.1247 8.16955 53.9182 7.5768 54.6312 7.79022C55.2173 7.96455 55.7782 8.09019 55.9111 8.69135C56.0271 9.24683 55.9027 10.1065 55.1927 10.0067C54.954 9.97964 53.914 9.63097 52.639 9.76563C51.0988 9.94117 49.344 10.4437 49.1702 12.1601C49.0765 13.1183 50.262 14.2497 51.4084 14.0201C52.2007 13.8638 51.8262 12.9295 52.2572 12.4757C52.8217 11.8937 56.0271 14.5052 59.0065 14.5052C60.2605 14.5052 61.1947 14.1884 62.1199 13.2175C62.2076 13.1436 62.3116 12.9849 62.4463 12.9746C62.5732 12.9855 62.792 13.1093 62.8647 13.1622C65.2634 15.0901 67.0783 18.9586 75.8961 19.0037C77.1363 19.0115 78.5478 19.6031 79.7009 20.6545C80.7301 21.6061 81.3324 23.0868 81.918 24.5885C82.8011 26.8404 84.3815 29.0329 86.779 31.4706C86.9106 31.601 88.8842 33.1364 89.0417 33.25C89.0664 33.2669 89.2119 33.6131 89.1614 33.8067C89.1018 35.2699 88.8902 39.5214 92.0602 39.7125C92.8332 39.7522 92.6313 39.2063 92.6313 38.833C92.6301 38.0924 92.4942 37.356 92.885 36.5973C93.42 35.5561 91.753 35.0758 91.8011 32.8202C91.8371 31.14 90.4226 31.4261 89.7084 30.1456C89.2954 29.4032 88.9287 29.0094 88.9546 28.1029C89.1169 22.9954 87.8677 19.6391 87.2455 18.8149C86.7585 18.1927 86.3569 17.9462 86.8036 17.6577C89.4469 15.9101 90.0475 14.2852 90.0475 14.2852C91.4542 10.9782 92.719 7.95794 94.4654 6.62877C94.8165 6.35404 95.717 5.68013 96.2689 5.41743C97.8986 4.64974 98.7547 4.18444 99.2278 3.72456C99.9739 2.99655 100.568 1.47561 99.85 0.554026C98.9579 -0.583974 97.4153 0.318972 96.7342 0.722953C91.8702 3.60913 91.1548 8.70097 89.4691 11.6238C88.1255 13.9605 85.9403 15.6763 83.9865 15.8169C82.5227 15.9257 80.9435 15.6294 79.3714 14.9392C75.548 13.2626 73.456 11.0984 72.9618 10.7161C71.9344 9.92374 63.9594 2.0942 57.4993 1.77559C57.4993 1.77559 56.6974 0.169884 56.4954 0.143433C56.0235 0.0827152 55.5396 1.10168 55.1933 1.22071C54.8663 1.32772 54.318 0.11638 53.9892 0.169282ZM25.5458 46.8916C24.9374 46.8766 24.421 46.3776 24.421 45.7608L24.4222 25.6069H17.78V47.8222C17.78 48.9115 18.6619 49.7994 19.7452 49.7994H31.3548C32.4441 49.7994 33.3158 48.9109 33.3158 47.8222V25.6069H26.679L26.6736 45.7608C26.6742 46.3776 26.1566 46.8766 25.5458 46.8916ZM47.7834 25.6069H37.7319C37.4477 25.6073 37.1664 25.6638 36.904 25.7731C36.6416 25.8824 36.4034 26.0424 36.2029 26.2438C36.0024 26.4453 35.8436 26.6843 35.7355 26.9471C35.6275 27.21 35.5723 27.4916 35.5732 27.7758V49.7994H42.222V29.5986C42.2228 29.4519 42.2525 29.3068 42.3094 29.1716C42.3663 29.0364 42.4493 28.9138 42.5537 28.8107C42.6581 28.7077 42.7817 28.6262 42.9176 28.5709C43.0535 28.5157 43.1989 28.4878 43.3456 28.4888C43.966 28.4888 44.4637 28.9674 44.4782 29.5811V49.8H51.0982V29.5805C51.1078 28.9667 51.6044 28.4882 52.2242 28.4882C52.8379 28.4882 53.3453 28.9788 53.3501 29.598V49.7994H59.9996V27.7758C60.0002 27.4915 59.9448 27.2099 59.8366 26.947C59.7283 26.6841 59.5693 26.4451 59.3687 26.2437C59.168 26.0423 58.9297 25.8824 58.6672 25.7731C58.4047 25.6638 58.1233 25.6073 57.839 25.6069H47.7834ZM13.3494 43.7205H6.63923V49.7994H0V25.6069H13.3915C14.5902 25.6069 15.5262 26.5813 15.5262 27.7855V41.5388C15.5271 41.8252 15.4714 42.1089 15.3624 42.3736C15.2534 42.6384 15.0931 42.879 14.8909 43.0817C14.6886 43.2844 14.4484 43.4452 14.1838 43.5548C13.9193 43.6644 13.6357 43.7207 13.3494 43.7205ZM8.89179 29.6401C8.89386 29.4906 8.86641 29.3422 8.81102 29.2034C8.75564 29.0645 8.6734 28.938 8.56903 28.831C8.46465 28.724 8.34019 28.6386 8.20277 28.5798C8.06536 28.521 7.91768 28.4899 7.76822 28.4882H6.63923V40.7249H7.76822C8.35315 40.7249 8.8972 40.2596 8.89179 39.5881V29.6401ZM85.7714 46.9319C85.7714 48.5755 84.4537 49.9118 82.8227 49.9118C82.4317 49.9123 82.0444 49.8355 81.6832 49.6858C81.322 49.5361 80.9939 49.3164 80.7179 49.0395C80.4418 48.7626 80.2233 48.4338 80.0747 48.0721C79.9262 47.7104 79.8506 47.3229 79.8524 46.9319C79.8524 45.3123 81.1767 43.9567 82.7746 43.9567C84.4518 43.9549 85.7714 45.2703 85.7714 46.9319ZM82.78 44.3896C81.4448 44.3896 80.3249 45.542 80.3249 46.9397C80.3249 48.3422 81.4448 49.485 82.8209 49.485C84.1861 49.485 85.2935 48.3422 85.2935 46.9397C85.2935 45.5396 84.1861 44.3896 82.8209 44.3896H82.78Z" fill="#313131"/>
<path d="M84.2155 48.655H83.4238L82.4048 47.2982V48.655H81.758V45.2254H82.4367C83.3631 45.2254 83.8536 45.574 83.8536 46.2431C83.8536 46.6892 83.5639 47.0836 83.1599 47.2038L83.1118 47.2206L84.2155 48.655ZM82.516 46.7415C82.9765 46.7415 83.2218 46.5786 83.2218 46.2516C83.2218 45.9606 82.9849 45.8103 82.5353 45.8103H82.403V46.7427L82.516 46.7415ZM71.1456 49.799V43.7249H68.8871V49.799H62.2527V27.7754C62.2527 26.5731 63.2205 25.6064 64.412 25.6064H75.6213C75.9057 25.6067 76.1873 25.663 76.4499 25.7722C76.7125 25.8814 76.951 26.0413 77.1517 26.2427C77.3525 26.4442 77.5115 26.6833 77.6197 26.9463C77.728 27.2093 77.7833 27.491 77.7825 27.7754V49.799H71.1456ZM71.1456 40.7293V29.5891C71.1294 28.9736 70.6323 28.4998 70.0131 28.4998C69.7176 28.4993 69.4338 28.6152 69.2231 28.8223C69.0124 29.0294 68.8917 29.3111 68.8871 29.6066V40.7293H71.1456ZM0.186279 61.9996V55.3531H0.927512V55.9778C1.10185 55.7337 1.29963 55.5491 1.52026 55.4271C1.73968 55.3063 2.0066 55.2431 2.3204 55.2431C2.731 55.2431 3.0923 55.3507 3.4061 55.5593C3.72111 55.7722 3.95737 56.0697 4.11668 56.4539C4.27779 56.8386 4.35714 57.26 4.35714 57.7187C4.35714 58.2099 4.26937 58.6535 4.09203 59.0473C3.91589 59.4405 3.65979 59.7416 3.32314 59.952C3.00641 60.1552 2.63835 60.2638 2.26209 60.2652C1.98976 60.2652 1.7475 60.2075 1.53168 60.0939C1.32593 59.988 1.14484 59.8399 1.00025 59.6593V61.9984L0.186279 61.9996ZM0.923304 57.7824C0.923304 58.3998 1.04835 58.8579 1.29843 59.1537C1.54851 59.4489 1.8533 59.5968 2.20799 59.5968C2.56929 59.5968 2.88009 59.4441 3.13798 59.1357C3.39588 58.8303 3.52573 58.356 3.52573 57.7139C3.52573 57.1007 3.39889 56.6438 3.1476 56.3379C2.89572 56.0337 2.59453 55.881 2.24586 55.881C1.89839 55.881 1.5912 56.0433 1.32368 56.3673C1.05556 56.6931 0.923304 57.1657 0.923304 57.7824ZM13.1203 60.1594V59.4531C12.7446 59.9965 12.2372 60.267 11.5945 60.267C11.312 60.267 11.0463 60.2129 10.8004 60.1041C10.5551 59.9959 10.373 59.8583 10.2539 59.6947C10.127 59.5141 10.041 59.3079 10.0021 59.0906C9.96959 58.9301 9.95276 58.677 9.95276 58.3289V55.3525H10.7667V58.0175C10.7667 58.4437 10.7842 58.7299 10.8166 58.8778C10.8689 59.0924 10.9777 59.2595 11.1425 59.3827C11.3096 59.5048 11.5146 59.5661 11.7586 59.5661C12.0027 59.5661 12.2312 59.5036 12.4464 59.3785C12.661 59.2541 12.8119 59.0828 12.9003 58.8675C12.9898 58.6511 13.0349 58.3379 13.0349 57.9285V55.355H13.8489V60.1594H13.1203ZM19.7565 60.1594V55.355H20.4839V56.0276C20.635 55.7923 20.8419 55.598 21.0863 55.462C21.337 55.3183 21.6225 55.2455 21.9417 55.2455C22.297 55.2455 22.5892 55.3201 22.8158 55.468C23.0443 55.6165 23.2054 55.8214 23.298 56.0872C23.6797 55.5263 24.1738 55.2455 24.7822 55.2455C25.2595 55.2455 25.6257 55.379 25.8823 55.6423C26.1384 55.9056 26.2671 56.3126 26.2671 56.8609V60.1594H25.4579V57.1326C25.4579 56.8062 25.4315 56.5711 25.3792 56.428C25.3242 56.2842 25.2231 56.1627 25.0918 56.0824C24.9447 55.9924 24.7749 55.9465 24.6025 55.9501C24.264 55.9501 23.9845 56.0631 23.7608 56.288C23.5384 56.5122 23.4254 56.8723 23.4254 57.3664V60.1594H22.6114V57.0382C22.6114 56.6751 22.5453 56.4034 22.4118 56.223C22.279 56.0427 22.0626 55.9519 21.7602 55.9519C21.5317 55.9519 21.3201 56.0126 21.1254 56.1347C20.9306 56.2549 20.7887 56.431 20.7021 56.6631C20.6144 56.8963 20.5705 57.2306 20.5705 57.6682V60.1606H19.7565V60.1594ZM35.2418 59.5655C34.9395 59.8222 34.6491 60.0025 34.3708 60.1083C34.0833 60.2154 33.7787 60.269 33.472 60.2664C32.9436 60.2664 32.539 60.1378 32.2553 59.8805C31.9727 59.6214 31.8302 59.292 31.8302 58.891C31.8302 58.6541 31.8825 58.4401 31.9908 58.2453C32.0912 58.0579 32.2353 57.8975 32.411 57.7776C32.5853 57.661 32.7801 57.5708 32.9977 57.5113C33.236 57.4554 33.4775 57.4146 33.7209 57.3893C34.3786 57.3105 34.8637 57.218 35.1739 57.1073C35.1769 56.9961 35.1787 56.9252 35.1787 56.8957C35.1787 56.5639 35.1018 56.33 34.9473 56.1948C34.7405 56.009 34.4303 55.9182 34.0209 55.9182C33.6379 55.9182 33.3554 55.9844 33.1708 56.119C32.9887 56.2537 32.8546 56.4911 32.7663 56.8326L31.9709 56.7226C32.0437 56.3841 32.1627 56.1076 32.328 55.899C32.4933 55.688 32.7344 55.5269 33.0476 55.4133C33.3608 55.3002 33.7239 55.2431 34.1381 55.2431C34.5487 55.2431 34.8805 55.2924 35.1372 55.388C35.3939 55.4854 35.5821 55.605 35.7041 55.7517C35.825 55.8984 35.9079 56.083 35.9572 56.3072C35.9837 56.4455 35.9975 56.6955 35.9975 57.0574V58.1437C35.9975 58.9018 36.0143 59.3815 36.0498 59.5799C36.0841 59.7807 36.1532 59.9737 36.2554 60.1576H35.4042C35.3143 59.9718 35.2593 59.7711 35.2418 59.5655ZM35.1733 57.7464C34.8769 57.8684 34.4339 57.97 33.8435 58.0554C33.5087 58.1035 33.2706 58.1576 33.133 58.2183C33.0014 58.2721 32.8894 58.3648 32.8119 58.484C32.7368 58.5988 32.6977 58.7269 32.6977 58.8699C32.6977 59.0876 32.7813 59.2685 32.9448 59.4134C33.1077 59.5571 33.3494 59.6286 33.6662 59.6286C33.9794 59.6286 34.2589 59.5619 34.503 59.4236C34.7373 59.2969 34.9258 59.0996 35.0417 58.8597C35.13 58.6764 35.1727 58.404 35.1727 58.0458L35.1733 57.7464ZM42.1215 60.1594V59.2306H43.0497V60.1594H42.1215ZM52.2337 58.398L53.0326 58.5038C52.9449 59.0545 52.7218 59.4879 52.3617 59.7987C52.0016 60.1113 51.5586 60.2664 51.0338 60.2664C50.3767 60.2664 49.8471 60.0518 49.4479 59.6226C49.0475 59.1934 48.8467 58.5778 48.8467 57.774C48.8467 57.2558 48.9345 56.8013 49.1058 56.4118C49.2784 56.0228 49.5405 55.7307 49.8928 55.5365C50.243 55.3417 50.6378 55.2411 51.0386 55.2443C51.5598 55.2443 51.9884 55.3772 52.3185 55.6411C52.6509 55.905 52.8631 56.2795 52.9575 56.7659L52.1658 56.8873C52.0894 56.5651 51.956 56.3222 51.7654 56.1587C51.5742 55.9958 51.3428 55.9146 51.0704 55.9146C50.6592 55.9146 50.3262 56.0613 50.0701 56.3559C49.814 56.6493 49.6848 57.1145 49.6848 57.7506C49.6848 58.3956 49.8092 58.8651 50.0569 59.1585C50.3046 59.4501 50.6268 59.5968 51.0248 59.5968C51.3434 59.5968 51.6115 59.4982 51.8255 59.3022C52.0395 59.1074 52.1754 58.8056 52.2337 58.398ZM58.0571 57.7554C58.0571 56.8657 58.3036 56.2056 58.8002 55.7782C59.2132 55.4235 59.7158 55.2431 60.3103 55.2431C60.9722 55.2431 61.5114 55.4596 61.9304 55.8936C62.3494 56.3264 62.5586 56.9234 62.5586 57.6863C62.5586 58.3055 62.4661 58.7918 62.2803 59.1459C62.0996 59.4962 61.8177 59.784 61.4711 59.9719C61.1157 60.168 60.7156 60.2691 60.3097 60.2652C59.6382 60.2652 59.0948 60.0506 58.6787 59.6184C58.2645 59.1886 58.0571 58.5682 58.0571 57.7554ZM58.8958 57.7554C58.8958 58.3704 59.0298 58.8309 59.2985 59.1375C59.5667 59.4453 59.9057 59.598 60.3121 59.598C60.7173 59.598 61.0527 59.4435 61.3221 59.1363C61.5896 58.8285 61.7236 58.359 61.7236 57.7283C61.7236 57.1344 61.5896 56.6835 61.3197 56.3769C61.0485 56.0709 60.7137 55.9182 60.3121 55.9182C59.9057 55.9182 59.5679 56.0709 59.2985 56.3757C59.028 56.6799 58.8958 57.141 58.8958 57.7554ZM68.1465 60.1594V55.355H68.8733V56.0276C69.0243 55.7923 69.2312 55.598 69.4756 55.462C69.7257 55.3183 70.0131 55.2455 70.3317 55.2455C70.687 55.2455 70.9785 55.3201 71.2052 55.468C71.4342 55.6165 71.5947 55.8214 71.6885 56.0872C72.0702 55.5263 72.5644 55.2455 73.1734 55.2455C73.6501 55.2455 74.0156 55.379 74.2717 55.6423C74.5296 55.9056 74.6576 56.3126 74.6576 56.8609V60.1594H73.8479V57.1326C73.8479 56.8062 73.8208 56.5711 73.7691 56.428C73.715 56.2861 73.6188 56.1695 73.4812 56.0824C73.3342 55.9924 73.1646 55.9465 72.9924 55.9501C72.6546 55.9501 72.3756 56.0631 72.1514 56.288C71.9296 56.5122 71.8159 56.8723 71.8159 57.3664V60.1594H71.002V57.0382C71.002 56.6751 70.9358 56.4034 70.8024 56.223C70.6695 56.0427 70.4537 55.9519 70.1507 55.9519C69.9217 55.9519 69.7113 56.0126 69.5153 56.1347C69.3217 56.2549 69.1792 56.431 69.0927 56.6631C69.0049 56.8963 68.961 57.2306 68.961 57.6682V60.1606H68.1465V60.1594Z" fill="#313131"/>
</svg>
