<svg width="24" height="24" viewBox="0 0 24 24" fill="none" xmlns="http://www.w3.org/2000/svg">
<path d="M12 23.9625C5.38047 23.9625 0 18.5904 0 11.9812C0 5.37205 5.38047 0 12 0C18.6195 0 24 5.37205 24 11.9812C24 18.5904 18.6195 23.9625 12 23.9625ZM12 1.6718C6.30698 1.6718 1.67442 6.29711 1.67442 11.9812C1.67442 17.6653 6.30698 22.2907 12 22.2907C17.693 22.2907 22.3256 17.6653 22.3256 11.9812C22.3256 6.29711 17.693 1.6718 12 1.6718Z" fill="#F2F2F2"/>
<path d="M10.4142 15.9713C10.1909 15.9713 9.97885 15.8822 9.82257 15.7261L6.66344 12.572C6.33972 12.2488 6.33972 11.7138 6.66344 11.3906C6.98717 11.0674 7.52298 11.0674 7.8467 11.3906L10.4142 13.954L16.1519 8.22532C16.4756 7.90211 17.0114 7.90211 17.3351 8.22532C17.6588 8.54854 17.6588 9.08351 17.3351 9.40673L11.0058 15.7261C10.8495 15.8822 10.6375 15.9713 10.4142 15.9713Z" fill="#F2F2F2"/>
</svg>
