<svg width="24" height="25" viewBox="0 0 24 25" fill="none" xmlns="http://www.w3.org/2000/svg">
<path d="M0.842619 24.0056C0.619415 24.0056 0.407337 23.9163 0.251094 23.76C0.0390505 23.548 -0.0501754 23.2355 0.027946 22.9453L1.43414 17.6889C0.496686 15.9479 0.00560326 13.9837 0.00560326 11.9972C0.00560326 5.37922 5.38482 0 12.0028 0C18.6208 0 24 5.37922 24 11.9972C24 18.6152 18.6208 23.9944 12.0028 23.9944C9.98278 23.9944 8.0075 23.4922 6.24419 22.5324L1.06583 23.9721C0.987713 23.9944 0.92074 24.0056 0.842619 24.0056ZM6.35576 20.8026C6.50084 20.8026 6.64594 20.8473 6.77986 20.9143C8.35345 21.8406 10.1613 22.3315 12.0028 22.3315C17.6945 22.3315 22.326 17.7001 22.326 12.0083C22.326 6.31669 17.6945 1.6852 12.0028 1.6852C6.31112 1.6852 1.67963 6.31669 1.67963 12.0083C1.67963 13.8275 2.15951 15.6019 3.06349 17.1644C3.17509 17.3541 3.20859 17.5885 3.15279 17.8005L2.03677 21.9744L6.14372 20.8361C6.21068 20.8137 6.2888 20.8026 6.35576 20.8026Z" fill="#A4A4A4"/>
<path d="M15.0608 18.4361C14.3689 18.4361 13.6546 18.2798 12.9069 17.9562C12.2038 17.6549 11.5007 17.2531 10.8199 16.7509C10.1503 16.2598 9.49194 15.7018 8.88929 15.0992C8.28664 14.4854 7.72857 13.8381 7.23752 13.1685C6.73531 12.4654 6.33354 11.7734 6.04338 11.0927C5.73089 10.3561 5.57466 9.63068 5.57466 8.93875C5.57466 8.4477 5.66392 7.97897 5.83132 7.54373C6.00989 7.08616 6.30006 6.67322 6.67951 6.31609C7.39376 5.613 8.42055 5.35634 9.23524 5.74694C9.51425 5.86971 9.74861 6.07059 9.92722 6.33843L11.2217 8.15753C11.3556 8.33609 11.4562 8.52581 11.5343 8.71554C11.6236 8.93874 11.6794 9.16197 11.6794 9.37401C11.6794 9.66418 11.6011 9.95433 11.4449 10.211C11.3445 10.3784 11.1994 10.5793 11.0096 10.769L10.8646 10.9253C10.9315 11.0146 11.0096 11.1262 11.1324 11.2601C11.3668 11.5279 11.6235 11.8181 11.9025 12.0971C12.1815 12.3649 12.4605 12.6328 12.7395 12.8671C12.8734 12.9787 12.9851 13.068 13.0744 13.1238L13.2305 12.9676C13.4314 12.7667 13.6324 12.6105 13.8333 12.51C14.2016 12.2757 14.7706 12.2199 15.2728 12.4319C15.4514 12.4989 15.63 12.5993 15.8197 12.7332L17.6836 14.0501C17.9402 14.2287 18.141 14.4742 18.2749 14.7532C18.3865 15.0322 18.4313 15.2777 18.4313 15.5344C18.4313 15.8692 18.3531 16.1929 18.208 16.5054C18.0629 16.7955 17.8955 17.0522 17.6946 17.2866C17.3375 17.6772 16.9247 17.9674 16.4783 18.1571C16.0319 18.3468 15.5519 18.4361 15.0608 18.4361ZM8.4205 7.25355C8.35354 7.25355 8.13039 7.25355 7.85139 7.53255C7.63934 7.73344 7.49423 7.9455 7.39379 8.17987C7.29334 8.41423 7.24869 8.68208 7.24869 8.94992C7.24869 9.41865 7.36028 9.92085 7.58349 10.4565C7.81785 11.0146 8.16385 11.606 8.58794 12.1975C9.02319 12.789 9.51424 13.3805 10.0611 13.9274C10.608 14.4631 11.1882 14.9653 11.7909 15.4117C12.3712 15.8358 12.9628 16.1706 13.5543 16.4272C14.4025 16.7955 15.1836 16.8848 15.8197 16.617C16.0429 16.5277 16.2438 16.3714 16.4447 16.1706C16.5451 16.059 16.6233 15.9474 16.6903 15.8023C16.7238 15.7242 16.746 15.6349 16.746 15.5568C16.746 15.5344 16.746 15.501 16.7125 15.434L14.8488 14.1394C14.7706 14.0836 14.6925 14.039 14.6256 14.0166C14.5809 14.039 14.5141 14.0724 14.3913 14.1952L13.9672 14.6193C13.6436 14.9429 13.1302 15.0322 12.7173 14.8871L12.5164 14.7979C12.2597 14.6639 11.9694 14.4631 11.6458 14.184C11.3333 13.9162 11.0321 13.6372 10.7084 13.3247C10.3959 13.0011 10.1169 12.6997 9.8491 12.3873C9.55888 12.0413 9.35799 11.7623 9.22407 11.5279L9.10133 11.2378C9.06785 11.1262 9.05665 11.0034 9.05665 10.8918C9.05665 10.5793 9.16829 10.3003 9.38034 10.0771L9.80446 9.64184C9.92722 9.51908 9.97186 9.45213 9.99418 9.40749C9.9607 9.32937 9.91606 9.2624 9.86026 9.18428L8.55443 7.34285L8.4205 7.25355Z" fill="#A4A4A4"/>
</svg>
